<svg height="480pt" viewBox="0 0 480 480" width="480pt" xmlns="http://www.w3.org/2000/svg"><path d="m301.601562 464-21.601562-72h-80l-21.601562 72h-26.398438v16h176v-16zm0 0" fill="#e0e0de"/><path d="m287.199219 416-7.199219-24h-80l-7.199219 24zm0 0" fill="#d6d6d4"/><path d="m32 72c-13.253906 0-24 10.746094-24 24v248h464v-248c0-13.253906-10.746094-24-24-24zm0 0" fill="#348fd9"/><path d="m8 328h464v16h-464zm0 0" fill="#3086cd"/><path d="m8 344v24c0 13.253906 10.746094 24 24 24h416c13.253906 0 24-10.746094 24-24v-24zm0 0" fill="#e0e0de"/><path d="m400 8h-320c-13.253906 0-24 10.746094-24 24v312h368v-312c0-13.253906-10.746094-24-24-24zm0 0" fill="#60d1e0"/><path d="m96 344h328v-312c-.015625-5.375-1.859375-10.585938-5.222656-14.777344zm0 0" fill="#5ac6d4"/><path d="m80 32h16v16h-16zm0 0" fill="#3a9cc9"/><path d="m112 32h16v16h-16zm0 0" fill="#3a9cc9"/><path d="m144 32h16v16h-16zm0 0" fill="#3a9cc9"/><path d="m144 232h192c17.671875 0 32 14.328125 32 32s-14.328125 32-32 32h-192c-17.671875 0-32-14.328125-32-32s14.328125-32 32-32zm0 0" fill="#e0e0de"/><g fill="#3a9cc9"><path d="m232 256h16v16h-16zm0 0"/><path d="m264 256h16v16h-16zm0 0"/><path d="m200 256h16v16h-16zm0 0"/><path d="m168 256h16v16h-16zm0 0"/><path d="m136 256h16v16h-16zm0 0"/></g><path d="m304 136c0 35.347656-28.652344 64-64 64s-64-28.652344-64-64 28.652344-64 64-64 64 28.652344 64 64zm0 0" fill="#348fd9"/><path d="m264 128c0 13.253906-10.746094 24-24 24s-24-10.746094-24-24 10.746094-24 24-24 24 10.746094 24 24zm0 0" fill="#fec9a3"/><path d="m284.464844 181.96875c-7.355469-18.089844-24.9375-29.917969-44.464844-29.917969s-37.109375 11.828125-44.464844 29.917969c24.769532 24.039062 64.160156 24.039062 88.929688 0zm0 0" fill="#e94f4f"/><path d="m56 328h368v16h-368zm0 0" fill="#5ac6d4"/><path d="m410.6875 336.214844c-4.648438-.792969-9.410156.507812-13.011719 3.550781-3.601562 3.042969-5.679687 7.519531-5.675781 12.234375 0-8.835938-7.164062-16-16-16s-16 7.164062-16 16c0-8.835938-7.164062-16-16-16s-16 7.164062-16 16v-72c.179688-8.039062-5.429688-15.050781-13.3125-16.640625-4.648438-.792969-9.410156.507813-13.011719 3.550781-3.601562 3.042969-5.679687 7.519532-5.675781 12.234375v120.855469l-33.351562-20c-4.144532-2.496094-9.277344-2.695312-13.601563-.527344l-1.253906.632813c-4.777344 2.394531-7.792969 7.277343-7.792969 12.621093-.003906 4.5625 2.199219 8.847657 5.910156 11.496094l50.089844 35.777344h128v-87.144531c.179688-8.039063-5.429688-15.046875-13.3125-16.640625zm0 0" fill="#fec9a3"/><path d="m424 72h16v272h-16zm0 0" fill="#3086cd"/><path d="m424 344h16v48h-16zm0 0" fill="#d6d6d4"/><path d="m413.601562 336.992188c-31.203124 58.273437-85.152343 87.113281-121.121093 100.496093l3.519531 2.511719h128v-87.144531c.09375-6.914063-4.019531-13.191407-10.398438-15.863281zm0 0" fill="#fec093"/><path d="m448 64v16c8.835938 0 16 7.164062 16 16v240h-16v16h16v16c0 8.835938-7.164062 16-16 16v16c17.671875 0 32-14.328125 32-32v-272c0-17.671875-14.328125-32-32-32zm0 0"/><path d="m32 400h157.246094l-19.199219 64h-18.046875v16h176v-16h-141.246094l19.199219-64h10.046875v-16h-184c-8.835938 0-16-7.164062-16-16v-16h256v-16h-256v-240c0-8.835938 7.164062-16 16-16v-16c-17.671875 0-32 14.328125-32 32v272c0 17.671875 14.328125 32 32 32zm0 0"/><path d="m64 32c0-8.835938 7.164062-16 16-16h320c8.835938 0 16 7.164062 16 16v288h16v-288c0-17.671875-14.328125-32-32-32h-320c-17.671875 0-32 14.328125-32 32v288h16zm0 0"/><path d="m80 32h16v16h-16zm0 0"/><path d="m112 32h16v16h-16zm0 0"/><path d="m144 32h16v16h-16zm0 0"/><path d="m144 304h128v-16h-128c-13.253906 0-24-10.746094-24-24s10.746094-24 24-24h192c9.703125-.007812 18.453125 5.828125 22.179688 14.785156 3.726562 8.957032 1.691406 19.277344-5.15625 26.152344-1.503907 1.484375-3.191407 2.777344-5.023438 3.839844l8 13.855468c3.039062-1.769531 5.84375-3.917968 8.335938-6.402343 11.410156-11.449219 14.804687-28.644531 8.605468-43.570313-6.199218-14.929687-20.777344-24.660156-36.941406-24.660156h-192c-22.089844 0-40 17.910156-40 40s17.910156 40 40 40zm0 0"/><path d="m232 256h16v16h-16zm0 0"/><path d="m264 256h16v16h-16zm0 0"/><path d="m200 256h16v16h-16zm0 0"/><path d="m168 256h16v16h-16zm0 0"/><path d="m136 256h16v16h-16zm0 0"/><path d="m189.96875 187.71875c.574219.554688 1.199219 1.035156 1.785156 1.601562 1 .902344 1.988282 1.824219 3.039063 2.671876.855469.6875 1.742187 1.3125 2.613281 1.960937.875.648437 1.914062 1.429687 2.914062 2.09375s2.121094 1.3125 3.199219 1.953125c.886719.519531 1.761719 1.070312 2.679688 1.601562 1.207031.636719 2.457031 1.207032 3.695312 1.78125.847657.394532 1.679688.800782 2.546875 1.175782 1.3125.546875 2.664063 1 4 1.472656.847656.296875 1.679688.625 2.542969.890625 1.382813.421875 2.808594.75 4.222656 1.085937.863281.207032 1.714844.464844 2.59375.640626 1.542969.304687 3.101563.503906 4.671875.710937.800782.105469 1.542969.265625 2.335938.34375 2.398437.234375 4.800781.359375 7.199218.359375 2.398438 0 4.800782-.125 7.199219-.359375.800781-.078125 1.554688-.238281 2.335938-.34375 1.601562-.207031 3.128906-.40625 4.671875-.710937.882812-.175782 1.730468-.433594 2.59375-.640626 1.414062-.335937 2.839844-.664062 4.222656-1.085937.863281-.265625 1.695312-.59375 2.542969-.890625 1.355469-.472656 2.707031-.925781 4-1.472656.867187-.359375 1.699219-.796875 2.546875-1.175782 1.238281-.574218 2.488281-1.144531 3.695312-1.78125.917969-.496093 1.792969-1.050781 2.679688-1.601562 1.078125-.640625 2.160156-1.257812 3.199218-1.953125 1.039063-.695313 1.945313-1.390625 2.914063-2.09375.964844-.707031 1.757813-1.273437 2.613281-1.960937 1.050782-.847657 2.042969-1.769532 3.042969-2.671876.582031-.535156 1.207031-1.015624 1.78125-1.601562.058594-.054688.082031-.117188.136719-.175781 21.023437-20.421875 27.570312-51.554688 16.550781-78.714844s-37.40625-44.929687-66.71875-44.929687-55.695313 17.769531-66.71875 44.929687c-11.019531 27.160156-4.472656 58.292969 16.550781 78.714844.039063.058593.0625.121093.121094.175781zm34.03125-59.71875c0-8.835938 7.164062-16 16-16s16 7.164062 16 16-7.164062 16-16 16-16-7.164062-16-16zm16 32c14.273438-.035156 27.476562 7.578125 34.59375 19.953125l-.464844.34375c-2.273437 1.785156-4.679687 3.390625-7.199218 4.800781l-.144532.085938c-2.449218 1.316406-4.992187 2.445312-7.609375 3.382812-.472656.167969-.9375.355469-1.40625.511719-2.542969.859375-5.144531 1.527344-7.785156 2-.511719.097656-1.039063.160156-1.601563.242187-5.582031.9375-11.28125.9375-16.863281 0-.519531-.082031-1.046875-.144531-1.597656-.242187-2.640625-.472656-5.242187-1.140625-7.785156-2-.472657-.15625-.9375-.34375-1.410157-.511719-2.613281-.9375-5.15625-2.066406-7.605468-3.382812l-.144532-.085938c-2.523437-1.410156-4.929687-3.015625-7.199218-4.800781l-.464844-.34375c7.132812-12.40625 20.378906-20.023437 34.6875-19.953125zm0-80c20.882812-.027344 40.042969 11.585938 49.683594 30.113281 9.640625 18.523438 8.15625 40.878907-3.851563 57.964844-5.578125-8.109375-13.203125-14.601563-22.105469-18.804687 11.582032-12.796876 10.925782-32.472657-1.480468-44.472657-12.402344-12-32.089844-12-44.492188 0-12.40625 12-13.0625 31.675781-1.480468 44.472657-8.902344 4.203124-16.527344 10.695312-22.105469 18.804687-12.007813-17.085937-13.492188-39.441406-3.851563-57.964844 9.640625-18.527343 28.800782-30.140625 49.683594-30.113281zm0 0"/><path d="m245.496094 372.3125-1.265625.632812c-6.9375 3.46875-11.550781 10.320313-12.160157 18.054688-.605468 7.738281 2.882813 15.222656 9.195313 19.734375l50.085937 35.777344c1.355469.96875 2.980469 1.488281 4.648438 1.488281h128c4.417969 0 8-3.582031 8-8v-87.144531c.152344-11.941407-8.273438-22.273438-20-24.527344-6.980469-1.164063-14.121094.808594-19.519531 5.382813l-.480469.410156c-9.101562-8.171875-22.898438-8.171875-32 0-6.617188-5.671875-15.71875-7.476563-24-4.761719v-49.359375c.15625-11.941406-8.269531-22.277344-20-24.527344-6.96875-1.179687-14.097656.773438-19.496094 5.335938-5.394531 4.5625-8.507812 11.269531-8.503906 18.335937v106.726563l-21.230469-12.742188c-6.480469-3.914062-14.515625-4.222656-21.273437-.816406zm46.398437 34.542969c2.472657 1.476562 5.542969 1.511719 8.046875.09375s4.054688-4.070313 4.058594-6.949219v-120.855469c0-2.371093 1.046875-4.617187 2.863281-6.136719 1.816407-1.523437 4.210938-2.160156 6.542969-1.742187 3.996094.976563 6.75 4.625 6.59375 8.734375v72c0 4.417969 3.582031 8 8 8s8-3.582031 8-8 3.582031-8 8-8 8 3.582031 8 8 3.582031 8 8 8 8-3.582031 8-8 3.582031-8 8-8 8 3.582031 8 8 3.582031 8 8 8 8-3.582031 8-8c0-2.347656 1.035156-4.578125 2.824219-6.097656 1.820312-1.539063 4.226562-2.195313 6.574219-1.789063 3.996093.980469 6.75 4.632813 6.601562 8.742188v79.144531h-117.441406l-48-34.28125c-1.605469-1.152344-2.558594-3.011719-2.558594-4.992188-.011719-2.316406 1.300781-4.441406 3.375-5.46875l1.265625-.632812c1.871094-.949219 4.09375-.863281 5.886719.222656zm0 0"/></svg>