<?xml version="1.0" ?><svg viewBox="0 0 128 128" xmlns="http://www.w3.org/2000/svg"><defs><style>.cls-1{fill:#4ec3c7;}.cls-2{fill:#f9a01b;}.cls-3{fill:#ffcf01;}.cls-4{fill:#f2f2f2;}.cls-5{fill:#a64d2c;}</style></defs><title/><g data-name="06 Internet Banking" id="_06_Internet_Banking"><path class="cls-1" d="M27.3,32.4h76a4,4,0,0,1,4,4v50a0,0,0,0,1,0,0h-84a0,0,0,0,1,0,0v-50A4,4,0,0,1,27.3,32.4Z"/><rect class="cls-2" height="76" rx="2" ry="2" transform="translate(124.7 -5.9) rotate(90)" width="46" x="42.3" y="21.4"/><circle class="cls-3" cx="65.3" cy="59.4" r="16"/><circle class="cls-3" cx="65.3" cy="59.4" r="12"/><path class="cls-4" d="M17.3,86.4h96a0,0,0,0,1,0,0v0a6,6,0,0,1-6,6h-84a6,6,0,0,1-6-6v0a0,0,0,0,1,0,0Z"/><path class="cls-5" d="M26.7,38.6a3,3,0,0,0-3,3v42a3,3,0,0,0,3,3h72a3,3,0,0,0,3-3v-42a3,3,0,0,0-3-3Zm73,3v42a1,1,0,0,1-1,1h-72a1,1,0,0,1-1-1v-42a1,1,0,0,1,1-1h72A1,1,0,0,1,99.7,41.6Z"/><path class="cls-5" d="M110.7,88.6h-96a1,1,0,0,0-1,1,7,7,0,0,0,7,7h84a7,7,0,0,0,7-7A1,1,0,0,0,110.7,88.6Zm-6,6h-84a5,5,0,0,1-4.9-4h93.8A5,5,0,0,1,104.7,94.6Z"/><path class="cls-5" d="M53.7,93.6h18a1,1,0,0,0,0-2h-18A1,1,0,0,0,53.7,93.6Z"/><path class="cls-5" d="M21.7,86.6v-47a3,3,0,0,1,3-3h76a3,3,0,0,1,3,3v47a1,1,0,0,0,2,0v-47a5,5,0,0,0-5-5h-76a5,5,0,0,0-5,5v47A1,1,0,0,0,21.7,86.6Z"/><path class="cls-5" d="M62.7,49.6a13,13,0,1,0,13,13A13,13,0,0,0,62.7,49.6Zm0,24a11,11,0,1,1,11-11A11,11,0,0,1,62.7,73.6Z"/><path class="cls-5" d="M62.7,47.93c1.36,0,1.35-2.33,0-2.33S61.36,47.93,62.7,47.93Z"/><path class="cls-5" d="M48,62.6c0-1.36-2.33-1.35-2.33,0S48,63.94,48,62.6Z"/><path class="cls-5" d="M48.06,59.33A15,15,0,0,1,59.43,48,1,1,0,0,0,59,46,17,17,0,0,0,46.11,58.9,1,1,0,0,0,48.06,59.33Z"/><path class="cls-5" d="M59.43,77.24A15,15,0,0,1,48.06,65.87a1,1,0,0,0-2,.43A17,17,0,0,0,59,79.19,1,1,0,0,0,59.43,77.24Z"/><path class="cls-5" d="M66,48A15,15,0,0,1,77.34,59.33a1,1,0,0,0,2-.43A17,17,0,0,0,66.4,46,1,1,0,0,0,66,48Z"/><path class="cls-5" d="M77.34,65.87A15,15,0,0,1,66,77.24a1,1,0,0,0,.43,2A17,17,0,0,0,79.3,66.3,1,1,0,0,0,77.34,65.87Z"/><path class="cls-5" d="M62.7,77.27c-1.36,0-1.35,2.33,0,2.33S64,77.27,62.7,77.27Z"/><path class="cls-5" d="M77.37,62.6c0,1.36,2.33,1.35,2.33,0S77.37,61.25,77.37,62.6Z"/><path class="cls-5" d="M65,59.27a1,1,0,0,0,2,0,4.33,4.33,0,0,0-3.33-4.21c0-1.78-2-1.77-2,0a4.32,4.32,0,0,0,0,8.41V68a2.33,2.33,0,0,1-1.33-2.1,1,1,0,0,0-2,0,4.33,4.33,0,0,0,3.33,4.21v.32c0,1.21,2,1.56,2-.32a4.32,4.32,0,0,0,0-8.41V57.17A2.33,2.33,0,0,1,65,59.27Zm-3.33-2.1v4.2A2.32,2.32,0,0,1,61.7,57.17ZM63.7,68v-4.2A2.32,2.32,0,0,1,63.7,68Z"/></g></svg>