<?xml version="1.0" encoding="iso-8859-1"?>
<!-- Generator: Adobe Illustrator 19.0.0, SVG Export Plug-In . SVG Version: 6.00 Build 0)  -->
<svg version="1.1" id="Capa_1" xmlns="http://www.w3.org/2000/svg" xmlns:xlink="http://www.w3.org/1999/xlink" x="0px" y="0px"
	 viewBox="0 0 512.001 512.001" style="enable-background:new 0 0 512.001 512.001;" xml:space="preserve">
<path style="fill:#E93234;" d="M488.81,279.879h-41.194c-4.149,0-7.512,3.363-7.512,7.512v35.352c0,4.148,3.362,7.512,7.512,7.512
	h46.254c8.002,0,14.512-6.51,14.512-14.512v-16.29C508.383,288.66,499.602,279.879,488.81,279.879z"/>
<g>
	<path style="fill:#494949;" d="M145.235,453.108H74.969c-4.149,0-7.512,3.363-7.512,7.512v28.846
		c0,12.426,10.11,22.535,22.535,22.535h40.22c12.425,0,22.535-10.109,22.535-22.535V460.62
		C152.747,456.471,149.385,453.108,145.235,453.108z"/>
	<path style="fill:#494949;" d="M437.033,453.108h-70.267c-4.149,0-7.512,3.363-7.512,7.512v28.846
		c0,12.426,10.11,22.535,22.535,22.535h40.22c12.425,0,22.535-10.109,22.535-22.535V460.62
		C444.545,456.471,441.181,453.108,437.033,453.108z"/>
</g>
<g>
	<path style="fill:#353535;" d="M145.235,453.108h-34.265c4.149,0,7.512,3.363,7.512,7.512v28.846
		c0,12.426-10.11,22.535-22.535,22.535h34.265c12.425,0,22.535-10.109,22.535-22.535V460.62
		C152.747,456.471,149.385,453.108,145.235,453.108z"/>
	<path style="fill:#353535;" d="M437.033,453.108h-34.264c4.149,0,7.512,3.363,7.512,7.512v28.846
		c0,12.426-10.11,22.535-22.535,22.535h34.264c12.425,0,22.535-10.109,22.535-22.535V460.62
		C444.545,456.471,441.181,453.108,437.033,453.108z"/>
</g>
<path style="fill:#73CDFF;" d="M439.344,318.983l-33.322-56.5c-9.753-16.537-27.738-26.81-46.936-26.81H152.916
	c-19.199,0-37.183,10.273-46.936,26.81l-33.322,56.5c-1.71,2.899-1.282,6.581,1.046,9.012c2.327,2.43,5.988,3.016,8.958,1.432
	c6.114-3.26,13.027-4.984,19.991-4.984h306.698c6.964,0,13.876,1.724,19.991,4.984c1.115,0.595,2.328,0.883,3.53,0.883
	c2,0,3.974-0.798,5.427-2.317C440.626,325.565,441.053,321.882,439.344,318.983z"/>
<path style="fill:#2ABFF4;" d="M439.344,318.983l-33.322-56.5c-9.753-16.537-27.738-26.81-46.936-26.81H322.63
	c19.199,0,37.183,10.273,46.936,26.81l33.321,56.5c0.997,1.69,1.246,3.642,0.837,5.461h5.624c6.964,0,13.876,1.724,19.991,4.984
	c1.115,0.595,2.328,0.883,3.53,0.883c2,0,3.974-0.798,5.427-2.317C440.626,325.565,441.053,321.882,439.344,318.983z"/>
<path style="fill:#FF434D;" d="M409.349,309.421H102.652c-31.755,0-57.589,25.834-57.589,57.589v78.587
	c0,12.426,10.11,22.535,22.535,22.535h376.806c12.425,0,22.535-10.109,22.535-22.535V367.01
	C466.938,335.255,441.104,309.421,409.349,309.421z"/>
<path style="fill:#E93234;" d="M409.349,309.421h-36.455c31.755,0,57.589,25.834,57.589,57.589v78.587
	c0,12.426-10.11,22.535-22.535,22.535h36.455c12.425,0,22.535-10.109,22.535-22.535V367.01
	C466.938,335.255,441.104,309.421,409.349,309.421z"/>
<path style="fill:#FF434D;" d="M64.385,279.879H23.191c-10.793,0-19.573,8.781-19.573,19.573v16.29
	c0,8.002,6.51,14.512,14.512,14.512h46.254c4.149,0,7.512-3.363,7.512-7.512v-35.352C71.896,283.242,68.534,279.879,64.385,279.879z
	"/>
<g>
	<path style="fill:#FFD039;" d="M118.797,343.903c-18.993,0-34.446,15.452-34.446,34.446c0,18.993,15.453,34.446,34.446,34.446
		s34.446-15.452,34.446-34.446C153.243,359.355,137.79,343.903,118.797,343.903z"/>
	<path style="fill:#FFD039;" d="M393.204,343.903c-18.993,0-34.446,15.452-34.446,34.446c0,18.993,15.453,34.446,34.446,34.446
		s34.446-15.452,34.446-34.446S412.198,343.903,393.204,343.903z"/>
	<path style="fill:#FFD039;" d="M256.001,0C196.868,0,148.76,48.108,148.76,107.241s48.108,107.242,107.241,107.242
		s107.241-48.108,107.241-107.242C363.242,48.108,315.134,0,256.001,0z"/>
</g>
<path style="fill:#FFAE47;" d="M256.001,0c-4.126,0-8.197,0.242-12.203,0.698c53.408,6.077,95.039,51.536,95.039,106.543
	c0,55.008-41.631,100.466-95.039,106.543c4.006,0.456,8.076,0.698,12.203,0.698c59.133,0,107.241-48.108,107.241-107.242
	C363.242,48.108,315.134,0,256.001,0z"/>
<circle style="fill:#F99608;" cx="255.895" cy="108.467" r="72.311"/>
<path style="fill:#FFD039;" d="M277.772,109.683c-4.565-5.056-11.409-8.003-20.338-8.76c-8.142-0.69-11.192-4.158-10.529-11.97
	c0.232-2.753,1.338-5.111,3.112-6.639c2.111-1.82,5.318-2.607,9.272-2.271c5.833,0.495,8.098,8.585,8.106,8.61
	c1.024,4.021,5.115,6.447,9.132,5.427c4.021-1.024,6.45-5.112,5.427-9.132c-0.118-0.465-1.24-4.67-4.117-9.04
	c-3.686-5.595-8.633-9.144-14.425-10.402v-6.881c0-4.148-3.362-7.512-7.512-7.512s-7.512,3.363-7.512,7.512v7.721
	c-3.582,1.184-6.271,2.941-8.18,4.586c-4.769,4.109-7.707,10.059-8.275,16.751c-1.357,16.017,7.926,26.825,24.229,28.208
	c4.941,0.419,8.556,1.754,10.457,3.86c1.403,1.554,1.996,3.742,1.762,6.504c-0.262,3.101-1.515,5.973-3.435,7.88
	c-2.178,2.163-5.246,3.094-9.097,2.767c-8.614-0.73-13.099-9.549-13.219-9.79c-1.78-3.721-6.232-5.311-9.969-3.557
	c-3.755,1.764-5.369,6.238-3.606,9.992c0.281,0.6,6.245,12.978,19.332,17.104v7.655c0,4.148,3.362,7.512,7.512,7.512
	c4.149,0,7.512-3.363,7.512-7.512v-6.947c5.612-1.222,9.556-4.016,12.123-6.564c4.475-4.444,7.251-10.577,7.82-17.271
	C283.944,120.552,282.014,114.382,277.772,109.683z"/>
<g>
	<path style="fill:#F99608;" d="M123.699,438.17h-23.552c-4.149,0-7.512-3.363-7.512-7.512c0-4.148,3.362-7.512,7.512-7.512h23.552
		c4.149,0,7.512,3.363,7.512,7.512C131.211,434.807,127.849,438.17,123.699,438.17z"/>
	<path style="fill:#F99608;" d="M411.854,438.17h-23.552c-4.149,0-7.512-3.363-7.512-7.512c0-4.148,3.362-7.512,7.512-7.512h23.552
		c4.149,0,7.512,3.363,7.512,7.512C419.366,434.807,416.004,438.17,411.854,438.17z"/>
</g>
<g>
	<path style="fill:#494949;" d="M338.085,397.391c-7.791-20.78-27.936-34.742-50.127-34.742h-63.914
		c-22.191,0-42.335,13.962-50.127,34.742c-0.864,2.307-0.544,4.892,0.859,6.916c1.402,2.025,3.71,3.233,6.174,3.233h150.102
		c2.464,0,4.771-1.208,6.174-3.233C338.629,402.283,338.95,399.698,338.085,397.391z"/>
	<path style="fill:#494949;" d="M331.052,438.17H180.949c-4.149,0-7.512-3.363-7.512-7.512c0-4.148,3.362-7.512,7.512-7.512h150.102
		c4.149,0,7.512,3.363,7.512,7.512C338.563,434.807,335.201,438.17,331.052,438.17z"/>
</g>
<g>
</g>
<g>
</g>
<g>
</g>
<g>
</g>
<g>
</g>
<g>
</g>
<g>
</g>
<g>
</g>
<g>
</g>
<g>
</g>
<g>
</g>
<g>
</g>
<g>
</g>
<g>
</g>
<g>
</g>
</svg>
