<svg width="482" height="411" viewBox="0 0 482 411" fill="none" xmlns="http://www.w3.org/2000/svg">
<path d="M479.821 4.05119C490.324 16.5366 460.599 78.0423 438.897 96.3379L382.002 28.7776C404.08 10.1811 469.317 -8.41541 479.821 4.05119Z" fill="#194460"/>
<path d="M381.989 28.7788L438.872 96.3306L170.729 322.452L113.846 254.9L381.989 28.7788Z" fill="#A7B2BA"/>
<path opacity="0.185688" d="M355.452 25.5056C359.962 30.8646 340.026 70.6336 327.267 81.4079L145.665 234.505L114.061 196.898L295.25 44.1773C308.591 32.933 350.924 20.1467 355.452 25.5056Z" fill="#1C272B"/>
<path opacity="0.185688" d="M435.627 120.726C440.024 125.953 419.788 165.346 406.973 176.139L225.427 329.236L194.65 292.682L375.839 139.886C389.16 128.642 431.268 115.498 435.627 120.726Z" fill="#1C272B"/>
<path d="M98.2972 335.425L115.66 356.044L110.027 360.794L92.6648 340.174L98.2972 335.425Z" fill="#F27766"/>
<path d="M71.4176 303.526L88.7803 324.146L83.1479 328.895L65.7851 308.276L71.4176 303.526Z" fill="#F27766"/>
<path d="M141.174 341.947L132.343 349.469L155.511 376.978C156.133 377.719 156.895 378.33 157.753 378.776C158.612 379.221 159.55 379.493 160.513 379.575C161.477 379.657 162.447 379.548 163.369 379.254C164.29 378.96 165.144 378.487 165.883 377.862L169.096 375.154L141.174 341.947Z" fill="#7D9098"/>
<path d="M143.298 330.101C142.073 331.122 141.063 332.376 140.326 333.791C139.589 335.205 139.139 336.752 139.003 338.341C138.867 339.93 139.046 341.531 139.532 343.05C140.018 344.57 140.799 345.978 141.832 347.193L170.843 381.66C171.867 382.884 173.123 383.894 174.538 384.63C175.954 385.366 177.501 385.814 179.091 385.949C180.681 386.083 182.281 385.902 183.8 385.414C185.319 384.926 186.727 384.142 187.942 383.107C189.166 382.086 190.176 380.832 190.913 379.417C191.65 378.003 192.1 376.456 192.236 374.867C192.373 373.278 192.193 371.677 191.707 370.158C191.222 368.638 190.44 367.23 189.407 366.015L160.265 331.398C158.155 329.045 155.219 327.596 152.069 327.355C148.919 327.113 145.797 328.097 143.354 330.101H143.298Z" fill="#194460"/>
<path d="M61.1113 246.953L57.8982 249.66C56.4069 250.92 55.4762 252.721 55.3106 254.667C55.145 256.613 55.7581 258.546 57.0151 260.04L80.258 287.53L89.0891 280.009L61.1113 246.953Z" fill="#7D9098"/>
<path d="M63.31 235.106C62.0843 236.127 61.0728 237.38 60.3339 238.793C59.5951 240.207 59.1436 241.753 59.0056 243.343C58.8675 244.932 59.0457 246.533 59.5297 248.053C60.0138 249.573 60.7941 250.982 61.8256 252.199L90.9872 286.816C92.0092 288.039 93.2635 289.049 94.6775 289.785C96.0916 290.52 97.6373 290.969 99.2255 291.103C100.814 291.238 102.413 291.056 103.93 290.569C105.448 290.081 106.854 289.298 108.067 288.263C109.291 287.242 110.301 285.988 111.038 284.573C111.776 283.159 112.225 281.612 112.362 280.023C112.498 278.434 112.318 276.833 111.832 275.314C111.347 273.794 110.565 272.386 109.533 271.171L80.2771 236.404C78.1649 234.055 75.23 232.609 72.0813 232.368C68.9326 232.126 65.8118 233.107 63.3664 235.106H63.31Z" fill="#194460"/>
<path d="M437.375 122.794C441.772 128.021 421.535 167.414 408.721 178.226L227.175 331.323L196.397 294.75L377.586 141.955C390.908 130.71 432.978 117.586 437.375 122.794Z" fill="#194460"/>
<path d="M437.585 123.102C441.061 129.4 421.31 167.605 408.721 178.227L227.175 331.323L212.021 313.316L437.585 123.102Z" fill="#254D66"/>
<path d="M266.971 234.881L270.729 231.722L286.531 250.525L282.774 253.684L266.971 234.881Z" fill="#E9806E"/>
<path d="M319.47 190.637L323.228 187.459L339.03 206.262L335.272 209.44L319.47 190.637Z" fill="#E9806E"/>
<path d="M373.847 144.776L377.605 141.617L393.407 160.42L389.65 163.579L373.847 144.776Z" fill="#E9806E"/>
<mask id="mask0" mask-type="alpha" maskUnits="userSpaceOnUse" x="212" y="123" width="226" height="209">
<path d="M437.585 123.102C441.061 129.4 421.31 167.605 408.721 178.227L227.175 331.323L212.021 313.316L437.585 123.102Z" fill="#254D66"/>
</mask>
<g mask="url(#mask0)">
<path d="M393.388 160.382L408.533 178.385L404.837 181.502L389.697 163.485L389.762 163.428L393.388 160.382Z" fill="#F69C79"/>
<path d="M335.441 209.29L339.067 206.225L356.316 226.702C355.187 227.889 353.982 229.001 352.709 230.03L335.328 209.346L335.441 209.29Z" fill="#F69C79"/>
<path d="M282.829 253.572L286.587 250.507L303.761 270.984C302.634 272.19 301.429 273.321 300.153 274.368L282.829 253.685V253.572Z" fill="#F69C79"/>
</g>
<path d="M354.099 23.9259C349.702 18.6986 307.482 31.9737 294.667 42.7292L113.121 195.845L143.917 232.436L325.106 79.6402C338.428 68.3958 358.496 29.1344 354.099 23.9259Z" fill="#194460"/>
<mask id="mask1" mask-type="alpha" maskUnits="userSpaceOnUse" x="113" y="22" width="242" height="211">
<path d="M354.099 23.9259C349.702 18.6986 307.482 31.9737 294.667 42.7292L113.121 195.845L143.917 232.436L325.106 79.6402C338.428 68.3958 358.496 29.1344 354.099 23.9259Z" fill="#194460"/>
</mask>
<g mask="url(#mask1)">
<path d="M337.264 2.31341L354.642 22.9697L103.468 234.986L86.0907 214.33L337.264 2.31341Z" fill="#254D66"/>
<path d="M306.016 63.9771L309.643 60.9121L292.412 40.4541C291.029 41.3578 289.711 42.3568 288.467 43.4438L305.847 64.1275L306.016 63.9771Z" fill="#F69C79"/>
<path d="M251.639 109.838L255.265 106.773L238.035 86.334C236.671 87.2462 235.372 88.2514 234.146 89.3425L251.526 110.026L251.639 109.838Z" fill="#F69C79"/>
<path d="M199.14 154.12L202.767 151.055L185.518 130.579C184.165 131.5 182.866 132.498 181.628 133.568L199.009 154.252L199.14 154.12Z" fill="#F69C79"/>
</g>
<path d="M214.811 172.98L218.569 169.821L202.767 151.018L199.009 154.177L214.811 172.98Z" fill="#E9806E"/>
<path d="M267.328 128.698L271.086 125.539L255.284 106.736L251.526 109.895L267.328 128.698Z" fill="#E9806E"/>
<path d="M321.705 82.8556L325.463 79.6778L309.661 60.8745L305.903 64.0523L321.705 82.8556Z" fill="#E9806E"/>
<path d="M218.795 126.31L212.481 118.789L219.997 112.471L226.311 119.993L218.795 126.31Z" stroke="#0B324B" stroke-opacity="0.22" stroke-width="1.60803"/>
<path d="M207.558 135.787L201.226 128.266L208.742 121.948L215.074 129.47L207.558 135.787Z" stroke="#0B324B" stroke-opacity="0.22" stroke-width="1.60803"/>
<path d="M276.216 230.086C239.106 272.469 239.501 318.725 239.933 342.549C240.365 366.372 220.072 381.189 220.072 381.189L210.79 389.03L134.147 334.783L320.165 177.907L322.382 176.026C312.987 187.534 276.216 230.067 276.216 230.067V230.086Z" fill="#A7B2BA"/>
<mask id="mask2" mask-type="alpha" maskUnits="userSpaceOnUse" x="134" y="176" width="189" height="214">
<path d="M276.216 230.086C239.106 272.469 239.501 318.725 239.933 342.549C240.365 366.372 220.072 381.189 220.072 381.189L210.79 389.03L134.147 334.783L320.165 177.907L322.382 176.026C312.987 187.534 276.216 230.067 276.216 230.067V230.086Z" fill="#A7B2BA"/>
</mask>
<g mask="url(#mask2)">
<path d="M168.526 296.975L232.637 373.111L230.755 374.698L166.644 298.562L168.526 296.975Z" fill="#7D9098"/>
<path d="M176.01 290.651L174.15 292.231L237.34 367.294L239.219 365.714L176.01 290.651Z" fill="#7D9098"/>
<path d="M183.263 284.033L181.384 285.612L244.142 360.13L246.021 358.55L183.263 284.033Z" fill="#7D9098"/>
</g>
<path d="M105.868 183.341C82.4752 178.884 64.3056 196.221 64.3056 196.221L55.0234 204.043L95.8159 289.278L281.834 132.402L222.984 166.906C174.977 196.334 129.262 187.872 105.868 183.341Z" fill="#A7B2BA"/>
<mask id="mask3" mask-type="alpha" maskUnits="userSpaceOnUse" x="55" y="132" width="227" height="158">
<path d="M105.868 183.341C82.4752 178.884 64.3056 196.221 64.3056 196.221L55.0234 204.043L95.8159 289.278L281.834 132.402L222.984 166.906C174.977 196.334 129.262 187.872 105.868 183.341Z" fill="#A7B2BA"/>
</mask>
<g mask="url(#mask3)">
<path d="M73.5902 181.578L137.265 257.246L135.394 258.823L71.7195 183.154L73.5902 181.578Z" fill="#7D9098"/>
<path d="M78.0408 174.315L76.1618 175.894L139.37 250.957L141.249 249.378L78.0408 174.315Z" fill="#7D9098"/>
<path d="M85.2937 167.696L83.4147 169.276L146.172 243.793L148.051 242.214L85.2937 167.696Z" fill="#7D9098"/>
</g>
<path d="M379.014 109.895C378.563 110.534 378.075 111.455 377.605 112.095C348.18 158.821 304.325 192.949 304.325 192.949L131.704 338.524L111.355 314.381L368.605 97.6162L379.014 109.989V109.895Z" fill="#E2E5EA"/>
<path d="M358.721 85.2063C359.717 84.8678 360.431 84.5294 361.408 84.1909L372.325 97.1464L114.718 314.4L93.0539 288.621L265.919 142.932C266.032 143.083 307.125 105.42 358.853 85.2063H358.721Z" fill="#E2E5EA"/>
<path d="M77.3362 295.316L97.8833 319.717L90.383 326.042L69.8359 301.641L77.3362 295.316Z" fill="#0B324B"/>
<path d="M104.216 327.214L124.763 351.615L117.263 357.94L96.7155 333.539L104.216 327.214Z" fill="#0B324B"/>
<path d="M330.18 130.259L342.806 145.301C343.226 145.798 343.825 146.109 344.473 146.165C345.121 146.222 345.765 146.019 346.264 145.602L346.489 145.395C349.863 142.026 352.862 138.299 355.433 134.283C357.989 129.582 359.341 122.418 351.243 112.49C342.825 102.806 335.554 102.843 330.574 104.667C326.179 106.526 321.996 108.853 318.098 111.606L317.873 111.794C317.625 112 317.42 112.254 317.27 112.54C317.121 112.826 317.029 113.139 317.002 113.461C316.974 113.783 317.01 114.107 317.108 114.414C317.205 114.722 317.363 115.007 317.572 115.254L330.18 130.259Z" fill="#A2B9C8"/>
<path d="M310.112 147.107L313.044 144.625L332.529 167.753C331.608 168.768 330.65 169.501 329.823 170.517L310.112 147.107Z" fill="#C0CED7"/>
<path d="M290.346 123.697C291.511 122.963 292.394 122.23 293.54 121.497L313.044 144.625L310.113 147.107L290.346 123.697Z" fill="#C0CED7"/>
<path d="M272.822 178.529L293.164 202.686L289.629 205.666L269.288 181.51L272.822 178.529Z" fill="#C0CED7"/>
<path d="M232.488 212.573L252.83 236.729L249.295 239.71L228.954 215.554L232.488 212.573Z" fill="#C0CED7"/>
<path d="M212.153 188.407L232.494 212.563L228.96 215.544L208.618 191.388L212.153 188.407Z" fill="#C0CED7"/>
<path d="M192.123 246.603L212.464 270.759L208.93 273.74L188.588 249.584L192.123 246.603Z" fill="#C0CED7"/>
<path d="M171.788 222.437L192.129 246.593L188.595 249.574L168.253 225.418L171.788 222.437Z" fill="#C0CED7"/>
<path d="M151.758 280.633L172.1 304.789L168.565 307.77L148.224 283.613L151.758 280.633Z" fill="#C0CED7"/>
<path d="M131.423 256.467L151.764 280.623L148.23 283.604L127.889 259.447L131.423 256.467Z" fill="#C0CED7"/>
<path d="M311.352 142.906L314.512 146.659L112.722 316.825L109.562 313.073L311.352 142.906Z" fill="#C0CED7"/>
<path d="M70.5062 294.751L124.226 358.55L156.168 331.643C171.2 319.007 144.293 287.117 144.293 287.117C144.293 287.117 117.424 255.151 102.449 267.843L70.5062 294.751Z" fill="#335165"/>
<path d="M74.1789 291.581L127.902 355.379L124.151 358.542L70.4287 294.743L74.1789 291.581Z" fill="#4E697A"/>
<path d="M304.776 125.596C303.417 125.596 302.315 124.493 302.315 123.133C302.315 121.772 303.417 120.669 304.776 120.669C306.136 120.669 307.238 121.772 307.238 123.133C307.238 124.493 306.136 125.596 304.776 125.596Z" fill="#C0CED7"/>
<path d="M311.973 134.133C310.613 134.133 309.511 133.03 309.511 131.669C309.511 130.309 310.613 129.206 311.973 129.206C313.332 129.206 314.434 130.309 314.434 131.669C314.434 133.03 313.332 134.133 311.973 134.133Z" fill="#C0CED7"/>
<path d="M323.51 147.841C322.15 147.841 321.048 146.738 321.048 145.377C321.048 144.017 322.15 142.914 323.51 142.914C324.869 142.914 325.971 144.017 325.971 145.377C325.971 146.738 324.869 147.841 323.51 147.841Z" fill="#C0CED7"/>
<path d="M330.706 156.377C329.347 156.377 328.245 155.274 328.245 153.914C328.245 152.554 329.347 151.451 330.706 151.451C332.065 151.451 333.167 152.554 333.167 153.914C333.167 155.274 332.065 156.377 330.706 156.377Z" fill="#C0CED7"/>
<path d="M263.57 152.353L248.538 165.008C248.043 165.424 247.733 166.021 247.677 166.666C247.62 167.311 247.822 167.952 248.238 168.449C248.443 168.699 248.696 168.906 248.982 169.057C249.268 169.208 249.581 169.3 249.903 169.328C250.225 169.356 250.55 169.32 250.858 169.22C251.165 169.121 251.45 168.961 251.695 168.749L266.727 156.095C267.223 155.675 267.534 155.075 267.59 154.427C267.646 153.779 267.444 153.135 267.027 152.635C266.82 152.388 266.565 152.185 266.279 152.037C265.992 151.889 265.679 151.799 265.358 151.773C265.036 151.747 264.713 151.785 264.406 151.884C264.099 151.984 263.815 152.143 263.57 152.353Z" fill="#0B324B" fill-opacity="0.356205"/>
<path d="M242.939 169.746C242.692 169.954 242.489 170.209 242.342 170.496C242.194 170.782 242.104 171.096 242.078 171.417C242.052 171.739 242.089 172.063 242.189 172.37C242.288 172.677 242.447 172.961 242.657 173.206C242.863 173.452 243.116 173.655 243.401 173.803C243.686 173.95 243.998 174.04 244.318 174.066C244.637 174.092 244.959 174.055 245.265 173.956C245.57 173.856 245.852 173.697 246.096 173.488C246.345 173.285 246.552 173.033 246.702 172.749C246.853 172.464 246.945 172.152 246.973 171.831C247.001 171.51 246.965 171.187 246.866 170.88C246.767 170.574 246.607 170.291 246.396 170.047C246.191 169.797 245.939 169.59 245.653 169.439C245.367 169.288 245.053 169.195 244.731 169.167C244.409 169.139 244.084 169.176 243.777 169.275C243.469 169.375 243.184 169.535 242.939 169.746Z" fill="#0B324B" fill-opacity="0.356205"/>
<path opacity="0.24632" d="M126.687 343.583L148.784 324.949L134.523 308.026L112.426 326.641L126.687 343.564V343.583ZM147.168 324.78L126.988 341.703L114.324 326.66L134.504 309.737L147.168 324.78Z" fill="#7D9098"/>
<path opacity="0.24632" d="M118.385 322.642L131.776 338.545L129.894 340.132L116.502 324.229L118.385 322.642Z" fill="#7D9098"/>
<path opacity="0.24632" d="M125.044 317.832L138.344 333.637L136.474 335.214L123.174 319.408L125.044 317.832Z" fill="#7D9098"/>
<path opacity="0.24632" d="M129.995 321.156C129.039 320.021 129.184 318.324 130.319 317.367C131.453 316.411 133.149 316.555 134.105 317.691C135.061 318.827 134.916 320.523 133.781 321.48C132.647 322.437 130.952 322.292 129.995 321.156Z" fill="#7D9098"/>
<path d="M346.489 138.984C344.423 140.732 344.178 140.037 333.562 127.438C322.946 114.84 322.063 114.671 324.374 112.715C326.685 110.76 334.802 113.994 340.909 121.252C347.016 128.51 348.594 137.216 346.489 138.984Z" fill="#E7EBEF" fill-opacity="0.318982"/>
<path d="M338.56 115.217C337.2 115.217 336.098 114.114 336.098 112.753C336.098 111.393 337.2 110.29 338.56 110.29C339.919 110.29 341.021 111.393 341.021 112.753C341.021 114.114 339.919 115.217 338.56 115.217Z" fill="#E7EBEF" fill-opacity="0.318982"/>
<path d="M343.445 117.056C342.248 115.634 342.204 113.701 343.347 112.737C344.49 111.774 346.386 112.145 347.583 113.566C348.78 114.988 348.824 116.921 347.682 117.885C346.539 118.849 344.642 118.477 343.445 117.056Z" fill="#E7EBEF" fill-opacity="0.318982"/>
<path d="M356.448 86.0715L377.924 111.569C389.536 94.884 393.463 84.3166 389.706 79.8664C385.948 75.4163 374.862 77.4847 356.448 86.0715Z" fill="#194460"/>
<path d="M357.03 56.2494L360.788 53.0716L370.183 64.3536L366.425 67.5126L357.03 56.2494ZM355.151 57.8289L364.64 69.1108L360.882 72.2698L351.487 60.9878L355.151 57.8289ZM362.667 51.4921L366.425 48.3332L375.914 59.6152L372.156 62.7741L362.667 51.4921ZM368.304 46.7537L372.062 43.5947L381.551 54.8767L377.793 58.0357L368.304 46.7537ZM373.941 42.0153L377.699 38.8563L387.094 50.1383L383.336 53.316L373.941 42.0153ZM377.999 35.3965L347.936 60.687L360.581 75.7296L390.645 50.4203L377.999 35.3965Z" fill="#4E697A"/>
</svg>
