<?xml version="1.0" encoding="iso-8859-1"?>
<!-- Generator: Adobe Illustrator 19.0.0, SVG Export Plug-In . SVG Version: 6.00 Build 0)  -->
<svg version="1.1" id="Capa_1" xmlns="http://www.w3.org/2000/svg" xmlns:xlink="http://www.w3.org/1999/xlink" x="0px" y="0px"
	 viewBox="0 0 512 512" style="enable-background:new 0 0 512 512;" xml:space="preserve">
<circle style="fill:#FFF082;" cx="362.602" cy="132.13" r="132.13"/>
<path style="fill:#FFDC64;" d="M391.51,235.355c-72.973,0-132.129-59.156-132.129-132.129c0-29.106,9.524-55.924,25.469-77.757
	c-32.906,24.032-54.372,62.793-54.372,106.66c0,72.973,59.156,132.129,132.129,132.129c43.867,0,82.629-21.466,106.66-54.372
	C447.434,225.831,420.616,235.355,391.51,235.355z"/>
<path style="fill:#E6AF78;" d="M304.57,309.271l-58.211-22.389c-9.568-3.68-15.881-12.872-15.881-23.123v-40.791H123.123v40.791
	c0,10.251-6.313,19.443-15.881,23.123l-58.211,22.389c-19.872,7.643-32.64,27.127-31.715,48.398l6.023,138.532
	c0.384,8.835,7.658,15.799,16.5,15.799H313.76c8.843,0,16.116-6.964,16.501-15.799l6.023-138.532
	C337.209,336.398,324.442,316.914,304.57,309.271z"/>
<path style="fill:#FFDC64;" d="M304.57,309.271l-52.197-20.076c-9.129,33.212-39.461,57.644-75.573,57.644
	s-66.444-24.431-75.573-57.644L49.03,309.271c-19.872,7.643-32.64,27.127-31.715,48.398l6.023,138.532
	C23.723,505.035,30.997,512,39.839,512H313.76c8.842,0,16.116-6.965,16.5-15.799l6.023-138.532
	C337.209,336.398,324.442,316.914,304.57,309.271z"/>
<path style="fill:#D29B6E;" d="M123.123,261.925c14.9,10.151,32.821,16.052,51.955,16.052c20.632,0,39.862-6.845,55.4-18.504
	v-36.506H123.123V261.925z"/>
<path style="fill:#5C414B;" d="M175.077,41.529c-37.905,2.049-59.471,22.776-59.471,22.776s-31.634,0-31.634,37.96
	c0,30.368,7.592,60.498,7.592,60.498h174.618C281.366,79.251,245.304,37.733,175.077,41.529z"/>
<path style="fill:#503441;" d="M139.639,123.871c-33.032-24.774-24.033-59.566-24.033-59.566s-31.634,0-31.634,37.96
	c0,30.368,7.592,60.498,7.592,60.498h37.96L139.639,123.871z"/>
<path style="fill:#F0C087;" d="M258.59,155.172h-7.592l-1.31-6.682c-0.863-4.401-2.788-8.598-5.904-11.823
	c-36.827-38.113-92.584-32.54-108.206-30.072c-2.621,0.414-4.848,2.056-6.025,4.434c-7.88,15.925-16.987,35.059-22.462,40.098
	c-2.822,2.599-6.486,4.044-10.323,4.044h-5.463c-0.004,0-0.007,0.002-0.012,0.002c-0.828,0.015-1.673,0.102-2.534,0.268
	c-7.395,1.422-12.381,8.489-12.381,16.02v5.502c0,7.263,4.651,14.113,11.724,15.764c1.592,0.372,3.141,0.477,4.624,0.358
	c3.775-0.301,7.07,2.446,7.75,6.171c6.454,35.374,37.36,62.204,74.599,62.204s68.144-26.83,74.599-62.204
	c0.655-3.588,3.752-6.201,7.35-6.125h1.564c8.386,0,15.184-6.798,15.184-15.184v-7.592
	C273.774,161.97,266.976,155.172,258.59,155.172z"/>
<path style="fill:#E1A546;" d="M372.929,124.44V85.678c12.807,2.454,20.645,9.042,20.645,13.935c0,5.702,4.621,10.323,10.323,10.323
	s10.323-4.621,10.323-10.323c0-17.525-17.458-31.709-41.29-34.923v-6.884c0-5.702-4.621-10.323-10.323-10.323
	s-10.323,4.621-10.323,10.323v6.884c-23.832,3.214-41.29,17.398-41.29,34.923c0,24.79,22.634,34.398,41.29,40.206v38.762
	c-12.807-2.454-20.645-9.042-20.645-13.935c0-5.702-4.621-10.323-10.323-10.323s-10.323,4.621-10.323,10.323
	c0,17.525,17.458,31.709,41.29,34.923v6.884c0,5.702,4.621,10.323,10.323,10.323s10.323-4.621,10.323-10.323v-6.884
	c23.833-3.214,41.29-17.398,41.29-34.923C414.219,139.855,391.585,130.247,372.929,124.44z M331.639,99.613
	c0-4.893,7.838-11.481,20.645-13.935v32.244C337.073,112.383,331.639,107.319,331.639,99.613z M372.929,178.58v-32.244
	c15.21,5.539,20.645,10.604,20.645,18.309C393.574,169.538,385.736,176.126,372.929,178.58z"/>
<path style="fill:#E6AF78;" d="M129.525,185.54v-74.452c-7.874,15.914-16.965,35.006-22.432,40.039
	c-2.823,2.599-6.486,4.044-10.323,4.044h-5.463c-0.004,0-0.007,0.003-0.012,0.003c-0.828,0.015-1.673,0.102-2.534,0.268
	c-7.395,1.422-12.381,8.489-12.381,16.02v5.502c0,7.263,4.651,14.113,11.724,15.764c1.592,0.371,3.141,0.476,4.624,0.358
	c3.775-0.301,7.07,2.446,7.75,6.171c6.455,35.374,37.36,62.204,74.599,62.204c5.161,0,10.183-0.563,15.053-1.545
	c0.001,0,0.001-0.001,0.001-0.001C155.542,252.831,129.525,222.224,129.525,185.54z"/>
<g>
	<path style="fill:#FFF082;" d="M70.511,394.449c0-12.081-4.799-23.667-13.342-32.21l-32.535-32.535
		c-5.029,8.217-7.757,17.866-7.318,27.965l6.023,138.532c0.384,8.834,7.658,15.799,16.5,15.799H70.51L70.511,394.449L70.511,394.449
		z"/>
	<path style="fill:#FFF082;" d="M283.091,394.449c0-12.081,4.799-23.667,13.342-32.21l32.535-32.535
		c5.029,8.217,7.757,17.866,7.318,27.965l-6.023,138.532c-0.385,8.834-7.659,15.799-16.501,15.799h-30.671L283.091,394.449
		L283.091,394.449z"/>
	<path style="fill:#FFF082;" d="M85.724,295.158c11.567,39.402,47.932,68.197,91.076,68.197s79.51-28.795,91.076-68.197
		l-15.504-5.963c-9.129,33.212-39.461,57.644-75.573,57.644s-66.444-24.431-75.573-57.644L85.724,295.158z"/>
</g>
<g>
</g>
<g>
</g>
<g>
</g>
<g>
</g>
<g>
</g>
<g>
</g>
<g>
</g>
<g>
</g>
<g>
</g>
<g>
</g>
<g>
</g>
<g>
</g>
<g>
</g>
<g>
</g>
<g>
</g>
</svg>
