<?xml version="1.0" ?><!DOCTYPE svg  PUBLIC '-//W3C//DTD SVG 1.1//EN'  'http://www.w3.org/Graphics/SVG/1.1/DTD/svg11.dtd'><svg height="512px" style="enable-background:new 0 0 512 512;" version="1.1" viewBox="0 0 512 512" width="512px" xml:space="preserve" xmlns="http://www.w3.org/2000/svg" xmlns:xlink="http://www.w3.org/1999/xlink"><g id="_x36_94_x2C__Brieface_x2C__business_x2C__case_x2C__open_x2C__portfolio"><g><path d="M444.605,141.676h10.754l0,0h0.231l0,0l0.231,0.027h0.026h0.205h0.026    h0.205h0.026l0.231,0.023l0,0h0.232l0,0l0.231,0.027l0,0l0.231,0.025l0,0l0.231,0.025l0,0l0.231,0.025l0,0l0.232,0.027l0,0    l0.205,0.051h0.024l0.207,0.025l0,0l0.231,0.051l0,0l0.231,0.027l0,0l0.206,0.051h0.026l0.205,0.051l0,0l0.437,0.104h0.026    l0.438,0.102l0,0l0.205,0.077l0,0l0.231,0.053l0,0l0.207,0.077l0,0l0.643,0.205l0,0l0.205,0.078l0,0l0.207,0.076h0.024    l0.412,0.154l0,0l0.206,0.104l0,0l0.205,0.078l0,0l0.593,0.282l0,0c1.878,0.9,3.574,2.136,5.042,3.601    c3.317,3.318,5.402,7.925,5.402,12.966v12.22c-0.746,0.078-1.595,0.104-2.521,0.104c-7.435,0-14.148-3.011-19.011-7.873    c-4.862-4.86-7.872-11.576-7.872-19.011c0-1.079,0.051-2.16,0.179-3.164L444.605,141.676z M144.159,169.408h-10.934h-0.077H80.693    h-0.077h-8.618c-1.39,0-2.676,0.564-3.601,1.492c-0.902,0.899-1.493,2.186-1.493,3.576c0,1.336,0.541,2.545,1.363,3.473    l0.13,0.127c0.925,0.928,2.211,1.494,3.601,1.494h64.726h0.077h7.357c1.388,0,2.674-0.566,3.576-1.494    c0.925-0.924,1.492-2.186,1.492-3.574v-0.076l0,0v-0.053v-0.025v-0.025v-0.027v-0.051v-0.025v-0.025v-0.026v-0.026v-0.051v-0.026    v-0.024l-0.026-0.026v-0.051l0,0v-0.051l0,0v-0.077l-0.026-0.053l0,0v-0.051v-0.026v-0.024v-0.027l-0.024-0.025v-0.025v-0.053    v-0.023l-0.026-0.027v-0.025v-0.025v-0.053l0,0l-0.025-0.051l0,0v-0.051v-0.025l-0.026-0.051l-0.026-0.053l0,0v-0.051v-0.027    l-0.025-0.024v-0.026v-0.025l-0.026-0.025v-0.026v-0.051h-0.026v-0.053l0,0l-0.025-0.051v-0.026l-0.026-0.024v-0.026l0,0    l-0.026-0.051l0,0v-0.053l0,0l-0.024-0.051l0,0l-0.026-0.051l0,0l-0.026-0.051v-0.027l-0.024-0.025v-0.025l-0.026-0.025v-0.027    l-0.026-0.023v-0.027v-0.025l-0.024-0.025l-0.026-0.025v-0.027l-0.026-0.023v-0.027l-0.024-0.051l-0.026-0.025l-0.026-0.027    v-0.023l-0.024-0.027v-0.025l-0.026-0.025v-0.025l-0.026-0.027v-0.024l-0.024-0.026V171.8l-0.026-0.024l-0.026-0.026l0,0    l-0.025-0.051l0,0l-0.026-0.053h-0.026l-0.025-0.051l-0.026-0.051l0,0l-0.026-0.026v-0.026l-0.024-0.024l-0.026-0.026    l-0.026-0.026l0,0l-0.024-0.024l-0.026-0.026v-0.026l-0.026-0.024l-0.024-0.026l-0.026-0.026l0,0l-0.026-0.051l0,0l-0.051-0.051    l-0.026-0.027l-0.024-0.023l-0.026-0.027l-0.026-0.025v-0.025l-0.051-0.025v-0.027l-0.051-0.023l-0.026-0.053h-0.024l-0.026-0.051    l-0.051-0.027v-0.024l-0.026-0.026l-0.051-0.051l-0.053-0.026l-0.051-0.051l-0.051-0.026l-0.026-0.051l-0.051-0.026l0,0    l-0.053-0.051l-0.051-0.026l-0.051-0.051l-0.052-0.026l-0.051-0.051l-0.154-0.077l-0.026-0.026l-0.024-0.026l-0.026-0.024h-0.026    l-0.024-0.026h-0.026l-0.077-0.051l-0.026-0.027l-0.077-0.051h-0.025L146.551,170h-0.026l-0.024-0.027l-0.077-0.051h-0.051    l-0.026-0.025h-0.026l-0.102-0.051l-0.026-0.027h-0.051l-0.077-0.023l-0.026-0.027h-0.026l-0.025-0.023h-0.026l-0.051-0.027l0,0    l-0.053-0.025h-0.024l-0.104-0.025l0,0l-0.051-0.025h-0.026l-0.051-0.027l0,0l-0.053-0.024l0,0h-0.051h-0.026l-0.051-0.026l0,0    h-0.051l0,0l-0.077-0.025l0,0l-0.053-0.025l0,0h-0.077l-0.051-0.026h-0.051h-0.026l-0.026-0.026h-0.024l0,0h-0.051h-0.052h-0.025    h-0.026l-0.026-0.024l0,0h-0.024h-0.026h-0.026h-0.051h-0.026h-0.051l0,0l-0.026-0.026h-0.024l0,0h-0.053h-0.024h-0.053h-0.077    l0,0h-0.051l0,0h-0.026h-0.025h-0.026h-0.026H144.159z M134.485,185.692l-54.924,0.205c-6.895,23.179-18.702,40.519-29.559,56.495    c-12.657,18.598-24.001,35.268-24.001,56.774c0,22.664,9.184,43.192,24.028,58.036c14.843,14.844,35.372,24.028,58.037,24.028    c10.29,0,20.118-1.878,29.172-5.324l0.078-0.026l0.721-0.282l0.128-0.053l0.618-0.231l0.333-0.154l0.386-0.154l0.514-0.205    l0.207-0.103l0.72-0.309l0,0l0.721-0.31l0.205-0.104l0.514-0.23l0.386-0.182l0.309-0.152l0.592-0.258l0.104-0.077l0.719-0.335    l0.077-0.025l0.618-0.335l0.258-0.128l0.437-0.231l0.437-0.231l0.258-0.129l0.618-0.334l0.051-0.027l0.695-0.386l0.128-0.051    l0.541-0.31l0.335-0.178l0.333-0.207c2.239-1.312,4.425-2.728,6.508-4.219l0.618-0.438l0.026-0.025l0.618-0.464l0.154-0.102    l1.697-1.286l0.592-0.49c2.007-1.621,3.936-3.318,5.789-5.118l0.128-0.13l0.412-0.41l0.565-0.541l0.439-0.438l0.102-0.129    l0.541-0.541l0.026-0.051l0.488-0.514l1.055-1.133l0.463-0.514l0.052-0.077l0.514-0.567l0.077-0.104l0.411-0.487l0.232-0.258    l0.284-0.333l0.333-0.439l0.154-0.152l0.49-0.594l0,0l0.463-0.617l0.155-0.152l0.333-0.439l0.258-0.359l0.205-0.258    c5.48-7.203,9.802-15.331,12.657-24.129l0.051-0.129c0.823-2.572,1.544-5.171,2.109-7.82l0.052-0.258l0.36-1.75l0.104-0.541    l0.077-0.487l0.051-0.282l0.128-0.721v-0.052l0.13-0.772l0.024-0.205l0.104-0.566l0.051-0.438v-0.025l0.128-1.002l0.026-0.104    l0.077-0.772l0.026-0.154l0.024-0.181l0.077-0.848l0.053-0.387l0.051-0.668l0.026-0.13l0.051-0.797l0.026-0.104l0.051-0.694v-0.36    l0.078-1.028v-0.207l0.026-0.797l0.025-0.051l0.026-0.747v-0.308v-0.516l0.026-0.54v-0.257v-0.798    c0-26.934-24.619-53.329-38.949-76.712l-0.516-0.877l-0.23-0.385l-0.026-0.051l-0.258-0.438l-0.256-0.438h-0.026l-0.258-0.438    l-0.256-0.437v-0.025l-0.258-0.412l-0.797-1.389l-0.026-0.025l0,0l-0.026-0.077l-0.102-0.154l-0.181-0.31l-0.077-0.154    l-0.104-0.18l0,0v-0.025l-0.025-0.025l-0.051-0.104l-0.104-0.155l-0.077-0.154l-0.104-0.179l-0.077-0.154l-0.077-0.131    l-0.025-0.023l-0.026-0.053l-0.051-0.102l-0.104-0.182l-0.077-0.154l-0.104-0.154l-0.077-0.154l-0.051-0.077l-0.051-0.103l0,0    l-0.078-0.154l-0.104-0.154l-0.077-0.154l-0.102-0.18l-0.077-0.155v-0.024l-0.077-0.13l-0.104-0.179l-0.078-0.154l-0.104-0.154    l-0.077-0.182l-0.077-0.104l-0.024-0.051l-0.053-0.128l-0.024-0.053l-0.077-0.152l-0.104-0.154l-0.078-0.181l-0.104-0.154    l-0.024-0.051l-0.053-0.104l-0.051-0.104l-0.026-0.078l-0.102-0.154l-0.077-0.179l-0.104-0.154l-0.078-0.155l0,0l-0.077-0.18    l-0.024-0.051l-0.077-0.104l-0.077-0.18l-0.077-0.154l-0.104-0.154l-0.051-0.13l-0.026-0.051l-0.077-0.154l-0.026-0.052     M84.296,163.079h45.354v-0.052l-0.025-0.051v-0.104l0,0l-0.026-0.102v-0.076v-0.027v-0.104l-0.026-0.024l-0.025-0.309l0,0v-0.104    l-0.026-0.104v-0.103v-0.025v-0.078l-0.026-0.104v-0.102l-0.024-0.025v-0.104v-0.102l-0.026-0.104v-0.024v-0.077l-0.026-0.077    v-0.026v-0.104v-0.024v-0.077l-0.024-0.077v-0.053v-0.102v-0.027l-0.026-0.076v-0.078v-0.025l-0.026-0.205v-0.104v-0.025    l-0.024-0.104v-0.024v-0.077v-0.077v-0.026l-0.026-0.205v-0.104v-0.027l-0.026-0.102v-0.025v-0.078v-0.076v-0.027l-0.024-0.102    v-0.053v-0.076v-0.078v-0.024l-0.026-0.104v-0.051v-0.051l-0.026-0.104v-0.026v-0.102v-0.027v-0.076l-0.024-0.104l0,0v-0.102    v-0.053v-0.078l-0.026-0.076v-0.025v-0.104v-0.051v-0.053l-0.026-0.102v-0.026v-0.104v-0.051v-0.051v-0.104l0,0l-0.025-0.103    v-0.076v-0.053v-0.102l0,0l-0.026-0.104V156.7v-0.077v-0.104l0,0v-0.104l-0.026-0.051v-0.051v-0.13    c-0.232-3.55-0.309-7.255-0.256-11.112v-0.027v-0.051v-0.025l0,0v-0.051v-0.027v-0.024v-0.026v-0.024l0.024-0.053l0,0v-0.024    v-0.053v-0.024l0,0v-0.053c0.077-4.321,0.335-8.644,0.772-12.939c1.03-10.444,3.062-20.812,5.813-31.204    c-5.788-1.596-9.955,0.668-14.072,2.905c-6.25,3.37-12.399,6.716-22.843,1.493c-2.649-1.313-4.657-2.471-6.226-3.396    c-3.808-2.188-4.759-2.727-11.345-1.416c2.16,10.06,3.627,21.224,4.192,32.39C85.633,142.936,85.428,153.457,84.296,163.079z     M109.583,310.744c1.028-0.23,1.853-0.721,2.496-1.467c0.644-0.746,0.977-1.646,0.977-2.676c0-0.9-0.282-1.697-0.823-2.341    c-0.541-0.669-1.415-1.158-2.65-1.518V310.744z M106.625,288.98c-0.823,0.309-1.44,0.771-1.904,1.414    c-0.463,0.669-0.695,1.391-0.695,2.162c0,0.72,0.207,1.389,0.618,2.006c0.437,0.617,1.081,1.107,1.981,1.491V288.98z     M106.625,310.41v-8.541c-2.676-0.771-4.604-1.904-5.84-3.448c-1.235-1.568-1.877-3.421-1.877-5.633s0.719-4.09,2.109-5.608    c1.414-1.518,3.267-2.393,5.608-2.625v-2.006h2.958v2.006c2.16,0.258,3.885,1.004,5.196,2.213    c1.262,1.235,2.111,2.855,2.444,4.889l-5.171,0.693c-0.333-1.619-1.157-2.701-2.469-3.268v7.951    c3.268,0.9,5.505,2.031,6.714,3.446c1.185,1.39,1.776,3.19,1.776,5.403c0,2.469-0.746,4.527-2.237,6.226    c-1.518,1.672-3.576,2.727-6.252,3.138v3.807h-2.958v-3.756c-2.341-0.308-4.245-1.156-5.736-2.598    c-1.467-1.467-2.393-3.525-2.804-6.199l5.299-0.617c0.231,1.078,0.642,2.031,1.235,2.804    C105.211,309.482,105.879,310.05,106.625,310.41z M127.849,281.031c-5.067-5.043-12.065-8.181-19.783-8.181    s-14.715,3.138-19.757,8.181c-5.068,5.068-8.181,12.039-8.181,19.783c0,7.717,3.113,14.714,8.181,19.757    c5.042,5.067,12.04,8.181,19.757,8.181s14.715-3.113,19.783-8.181c5.042-5.043,8.181-12.04,8.181-19.757    C136.029,293.096,132.89,286.1,127.849,281.031z M108.066,266.266c9.544,0,18.188,3.858,24.44,10.109    c6.25,6.252,10.109,14.896,10.109,24.439c0,9.518-3.859,18.135-10.109,24.388l-0.077,0.077    c-6.226,6.226-14.845,10.059-24.363,10.059c-9.518,0-18.162-3.859-24.414-10.111l-0.051-0.051    c-6.226-6.25-10.058-14.869-10.058-24.361c0-9.544,3.858-18.163,10.109-24.414l0.053-0.077    C89.955,270.098,98.573,266.266,108.066,266.266z M304.377,231.664c-0.772-0.773-1.827-1.261-3.01-1.261    c-1.158,0-2.239,0.487-2.985,1.261c-0.771,0.771-1.26,1.826-1.26,3.01c0,0.592,0.128,1.184,0.36,1.672    c0.205,0.539,0.54,1.029,0.978,1.416c0.977,0.926,1.286,2.418,0.668,3.703l-3.164,6.328h10.806l-3.112-6.25    c-0.645-1.236-0.412-2.778,0.642-3.781c0.413-0.387,0.746-0.877,0.978-1.416c0.232-0.488,0.336-1.08,0.336-1.672    C305.612,233.49,305.148,232.436,304.377,231.664z M301.367,224.101c2.932,0,5.582,1.183,7.486,3.087    c1.903,1.903,3.086,4.553,3.086,7.486c0,1.466-0.309,2.882-0.848,4.168c-0.258,0.592-0.566,1.132-0.901,1.646l4.503,9.08    c0.771,1.569,0.127,3.447-1.415,4.219c-0.463,0.232-0.927,0.336-1.416,0.336H290.87c-1.749,0-3.164-1.415-3.164-3.164    c0-0.594,0.154-1.133,0.438-1.621l4.425-8.85c-0.359-0.515-0.644-1.055-0.899-1.646c-0.567-1.286-0.876-2.702-0.876-4.168    c0-2.934,1.185-5.583,3.113-7.486C295.81,225.283,298.46,224.101,301.367,224.101z M268.336,212.756h0.077h65.908h0.077h139.355    v-15.051H145.393l0.052,0.104l0.051,0.104l0.026,0.102l0.051,0.104l0.051,0.104l0.053,0.103l0.024,0.104l0.053,0.104v0.024    l0.051,0.077l0.026,0.104l0.051,0.104l0.051,0.103l0.053,0.104l0.025,0.102l0.052,0.104l0.051,0.104l0.051,0.102v0.026    l0.053,0.077l0.024,0.104l0.053,0.102l0.051,0.104l0.051,0.104l0.026,0.102l0.051,0.104l0.051,0.102l0.053,0.104v0.027h0.025    l0.154,0.359l0.053,0.104l0.051,0.102l0.026,0.104l0.102,0.205l0.026,0.053l0,0l0.026,0.051l0.179,0.411l0.052,0.104l0.463,1.003    l0.051,0.104l0.051,0.103l1.209,2.471l0.077,0.128l0.077,0.154l0,0c0.668,1.363,1.363,2.701,2.084,4.014l0.051,0.128l0.155,0.258    l0,0l0,0l0.077,0.128l0.051,0.154l0.077,0.129l1.158,2.084H268.336z M135.079,146.436c-0.026,5.504,0.282,11.035,0.924,16.644    h8.156h0.077h0.051h0.026h0.077h0.051l0,0h0.077h0.077l0,0h0.077l0.051,0.026h0.026h0.077h0.051h0.026h0.077h0.051h0.026    l0.077,0.025h0.024h0.053h0.077h0.024l0.053,0.025h0.077l0,0h0.051l0.077,0.026h0.026h0.051h0.077l0,0l0.154,0.026l0,0    l0.077,0.024h0.051l0.154,0.026l0.077,0.026h0.053l0.179,0.051h0.077l0.644,0.154l0.051,0.026l0,0l0.154,0.024l0.026,0.026    l0.102,0.026l0,0l0.104,0.024l0.026,0.026h0.024l0.155,0.052l0.051,0.025h0.026l0.026,0.026h0.077l0.102,0.052l0.053,0.025    l0.102,0.025l0.026,0.025h0.026l0.051,0.027l0.104,0.051h0.051l0.026,0.025h0.024l0.053,0.025l0.102,0.053l0.053,0.023h0.024    l0.026,0.027h0.051l0.053,0.025l0,0l0.051,0.025l0.051,0.025l0.026,0.027h0.026l0.025,0.024l0.077,0.026l0,0l0.077,0.051    l0.051,0.026l0,0l0.053,0.024l0.051,0.026l0,0l0.051,0.026l0.052,0.024l0.025,0.026h0.026l0.051,0.026l0.053,0.024v0.026    l0.051,0.026h0.026l0.024,0.024l0.361,0.207l0.025,0.024l0.026,0.027c2.29-2.213,4.194-4.811,5.582-7.719    c1.672-3.498,2.625-7.434,2.625-11.628c0-1.079-0.077-2.16-0.181-3.164l-0.077-0.669H147.4c-2.546,0-4.966,0.541-7.152,1.467    l-0.102,0.025l-0.077,0.026v0.026l-0.077,0.024l0,0l-0.104,0.026v0.026l-0.077,0.024l0,0l-0.104,0.053l0,0l-0.077,0.024l0,0    l-0.077,0.051h-0.025l-0.077,0.026v0.026l-0.077,0.024l0,0l-0.104,0.053l0,0l-0.077,0.024v0.026l-0.077,0.026h-0.025l-0.077,0.051    l0,0l-0.077,0.052l0,0l-0.077,0.025l-0.026,0.027l-0.077,0.023l0,0l-0.077,0.053l0,0l-0.077,0.051h-0.026l-0.051,0.027    l-0.026,0.023l-0.077,0.027v0.025l-0.077,0.025h-0.025l-0.053,0.053h-0.024l-0.053,0.051h-0.024l-0.077,0.051l0,0l-0.077,0.053    l0,0l-0.077,0.051h-0.026l-0.051,0.051h-0.026l-0.051,0.026l-0.026,0.026l-0.051,0.051h-0.026l-0.077,0.026l-0.024,0.024    l-0.053,0.026l-0.024,0.026l-0.053,0.024l-0.024,0.026l-0.053,0.051h-0.025l-0.052,0.053h-0.025l-0.052,0.051h-0.025l-0.053,0.051    h-0.024l-0.053,0.051h-0.024l-0.053,0.053l-0.051,0.025l-0.051,0.025l-0.026,0.027l-0.051,0.023l-0.026,0.027l-0.051,0.025    l-0.026,0.025l-0.051,0.053h-0.026l-0.051,0.051l-0.026,0.025l-0.051,0.025l-0.026,0.025l-0.051,0.027l-0.026,0.023l-0.051,0.027    l-0.026,0.025l-0.051,0.051l-0.026,0.027l-0.051,0.024l-0.026,0.026l-0.051,0.025l-0.026,0.025l-0.025,0.026l-0.053,0.026    l-0.024,0.051l-0.053,0.026l-0.024,0.024l-0.053,0.026l-0.024,0.026l-0.053,0.024l-0.024,0.053l-0.026,0.024l-0.051,0.026    l-0.026,0.026l-0.051,0.051l-0.026,0.026l-0.051,0.024l-0.026,0.026l-0.051,0.026l-0.026,0.051l-0.026,0.026l-0.051,0.024    l-0.026,0.027l-0.051,0.023l-0.024,0.053l-0.026,0.025l-0.051,0.025l-0.026,0.051L135.079,146.436z M271.577,252.244    l29.508,27.089l30.073-27.114v-33.16h-59.581V252.244z M456.98,377.553h0.026l0.205-0.025h0.026l0.41-0.051h0.053l0.18-0.027    h0.053c3.96-0.564,7.51-2.391,10.236-5.067l0.182-0.154c3.317-3.345,5.402-7.948,5.402-12.99v-12.22    c-0.746-0.051-1.595-0.104-2.521-0.104c-7.435,0-14.148,3.009-19.011,7.871c-4.862,4.863-7.872,11.578-7.872,19.012    c0,1.107,0.051,2.161,0.179,3.165l0.077,0.669h10.754C455.899,377.631,456.439,377.604,456.98,377.553z M438.252,377.631    c-0.154-1.287-0.231-2.572-0.231-3.834c0-9.158,3.73-17.467,9.725-23.461c6.021-6.02,14.303-9.75,23.487-9.75    c0.772,0,1.621,0.051,2.521,0.102V219.059H337.485v34.574c0,0.85-0.36,1.725-1.055,2.341l-33.237,29.944    c-1.184,1.107-3.062,1.107-4.271,0l-32.518-29.867c-0.694-0.564-1.156-1.44-1.156-2.418v-34.574H156.532l0.231,0.36l0.077,0.128    l0.13,0.231l0.231,0.36l0.128,0.23l0.077,0.104l0.205,0.36l0.437,0.694l0.231,0.36l0.078,0.104l0.13,0.231l0.231,0.359    l0.128,0.232l0.077,0.104l0.232,0.359l0.205,0.336h0.026l0.206,0.359l0.796,1.233l0.104,0.13l0.206,0.333l0.207,0.335l0.024,0.027    l0.207,0.333l0.231,0.335l0.051,0.077c14.689,22.201,35.063,45.739,35.063,72.391v0.849v0.283l-0.026,1.132l-0.025,0.335    l-0.026,0.799v0.051l-0.026,0.873l-0.025,0.207l-0.026,0.643l-0.026,0.49l-0.024,0.386l-0.051,0.745l-0.026,0.103l-0.051,0.849    l-0.026,0.154l-0.051,0.695l-0.053,0.438l-0.051,0.412l-0.078,0.695v0.154l-0.104,0.848l-0.024,0.104l-0.104,0.719l-0.051,0.387    l-0.053,0.463l-0.102,0.644l-0.026,0.179l-0.128,0.85l-0.026,0.053l-0.128,0.771l-0.053,0.309l-0.102,0.515l-0.104,0.593    l-0.051,0.231l-0.155,0.823v0.024l-0.359,1.621l-0.104,0.515l-0.077,0.309l-0.386,1.622l-0.051,0.205l-0.181,0.591l-0.102,0.464    l-0.104,0.334l-0.026,0.129c-0.36,1.313-0.746,2.572-1.158,3.858l-0.282,0.772l-0.025,0.104    c-4.399,13.017-11.757,24.67-21.25,34.163c-6.354,6.378-13.685,11.781-21.764,15.976H438.252z M312.248,108.208h-21.737    c-3.73,0-7.126,1.542-9.596,3.987c-2.444,2.469-3.988,5.865-3.988,9.594v13.584h48.879v-13.584c0-3.729-1.518-7.125-3.987-9.594    C319.375,109.75,315.979,108.208,312.248,108.208z M329.049,141.676h-0.078h-55.182h-0.104h-21.069h-0.077h-88.032    c0.154,1.287,0.231,2.572,0.231,3.833c0,5.145-1.183,10.007-3.292,14.355c-1.725,3.653-4.143,6.921-7.024,9.698l0,0l0.026,0.051    l0.026,0.078l0,0l0.051,0.076l0.026,0.051v0.027l0.024,0.051l0.026,0.053l0.026,0.023l0.024,0.078v0.025l0.026,0.052l0.024,0.053    v0.024l0.026,0.053l0.026,0.077l0,0l0.051,0.077v0.051l0.026,0.026l0.025,0.077v0.024l0.026,0.053l0.026,0.051v0.026l0.024,0.051    l0.026,0.078l0,0l0.026,0.076v0.051l0.024,0.027l0.026,0.076v0.027l0.026,0.051l0.024,0.076v0.025v0.053l0.026,0.077l0,0    l0.026,0.077l0.024,0.051v0.026l0.026,0.077v0.024v0.053l0.026,0.077l0.024,0.024v0.053l0.026,0.077l0,0v0.078l0.026,0.051v0.025    l0.024,0.078v0.051v0.025l0.026,0.078v0.023l0.026,0.053v0.078l0,0l0.025,0.075v0.077l0.026,0.077v0.053v0.024l0.026,0.077v0.053    v0.024l0.025,0.078v0.025v0.078v0.076l0,0l0.026,0.078v0.051v0.025v0.078v0.051l0.026,0.025v0.078v0.051v0.053v0.077l0,0v0.077    l0.024,0.077l0,0v0.075v0.053v0.024v0.104v0.026v0.051v0.078v0.025v0.051v0.078c0,3.139-1.286,5.994-3.345,8.053    c-2.083,2.082-4.938,3.368-8.051,3.368h-3.166l0.026,0.077l0.026,0.104l0.024,0.078l0.026,0.076l0.026,0.104l0.024,0.076    l0.053,0.181l0.024,0.077l0.026,0.104l0.051,0.077v0.051l0.026,0.051l0.026,0.077l0.025,0.078l0.026,0.104l0.026,0.076    l0.024,0.078l0.026,0.104l0.077,0.154l0.026,0.102l0.128,0.437l0.051,0.077l1.107,3.14h330.881v-12.761    c-0.9,0.053-1.749,0.104-2.521,0.104c-9.185,0-17.467-3.73-23.487-9.725c-5.994-6.02-9.725-14.33-9.725-23.487    c0-1.261,0.077-2.546,0.231-3.833H350.22h-0.077H329.049z M83.01,403.896c-1.75,0-3.164-1.414-3.164-3.163    c0-1.75,1.415-3.164,3.164-3.164h278.631c1.75,0,3.166,1.414,3.166,3.164c0,1.749-1.416,3.163-3.166,3.163H83.01z     M246.186,420.849c-1.75,0-3.164-1.415-3.164-3.164c0-1.75,1.414-3.164,3.164-3.164h192.813c1.725,0,3.139,1.414,3.139,3.164    c0,1.749-1.414,3.164-3.139,3.164H246.186z M458.729,420.849c-1.749,0-3.163-1.415-3.163-3.164c0-1.75,1.414-3.164,3.163-3.164    h24.105c1.723,0,3.164,1.414,3.164,3.164c0,1.749-1.441,3.164-3.164,3.164H458.729z M72.049,420.334    c-1.749,0-3.164-1.414-3.164-3.164c0-1.749,1.415-3.163,3.164-3.163h91.353c1.75,0,3.164,1.414,3.164,3.163    c0,1.75-1.414,3.164-3.164,3.164H72.049z M44.781,313.24c-0.488-1.672,0.463-3.422,2.135-3.912    c1.672-0.487,3.422,0.464,3.91,2.136c0.026,0.104,9.597,33.058,41.137,42.267c1.672,0.463,2.624,2.213,2.16,3.885    c-0.488,1.673-2.237,2.65-3.91,2.16C55.329,349.59,44.807,313.342,44.781,313.24z M290.511,101.879h21.737    c5.454,0,10.445,2.238,14.047,5.84s5.84,8.593,5.84,14.07v13.584h14.844V113.25c0-6.072-2.495-11.604-6.508-15.616    c-3.989-4.013-9.52-6.481-15.616-6.481H277.88c-5.994,0-11.475,2.418-15.461,6.327l-0.154,0.154    c-3.987,4.013-6.482,9.544-6.482,15.616v22.123h14.844v-13.584c0-5.478,2.237-10.469,5.84-14.07    C280.04,104.117,285.03,101.879,290.511,101.879z" style="fill-rule:evenodd;clip-rule:evenodd;"/></g></g><g id="Layer_1"/></svg>