<?xml version="1.0" ?><!DOCTYPE svg  PUBLIC '-//W3C//DTD SVG 1.1//EN'  'http://www.w3.org/Graphics/SVG/1.1/DTD/svg11.dtd'><svg height="512px" style="enable-background:new 0 0 512 512;" version="1.1" viewBox="0 0 512 512" width="512px" xml:space="preserve" xmlns="http://www.w3.org/2000/svg" xmlns:xlink="http://www.w3.org/1999/xlink"><g id="_x37_00_x2C__Bag_x2C__finance_x2C__give_x2C__investment_x2C__money_x2C__offer"><g><path d="M244.94,257.971c-0.647-0.028-1.242-0.244-1.727-0.596l-6.177-3.506    c-4.343,8.336-8.741,15.942-13.003,23.281c-15.619,26.921-29.323,50.525-29.323,93.797c0,31.776,12.895,60.533,33.693,81.358    c20.826,20.799,49.582,33.693,81.334,33.693c31.777,0,60.534-12.895,81.359-33.693c20.799-20.825,33.692-49.582,33.692-81.358    c0-43.271-13.702-66.876-29.321-93.797c-11.007-19.019-22.984-39.656-31.968-69.814l-0.27,0.135l-0.512,0.297l-0.163,0.08    l-0.107,0.055l-0.188,0.107h-0.027l-0.324,0.135l-0.053,0.027l-0.082,0.053h-0.054l-0.054,0.029l-0.082,0.054h-0.026l-0.081,0.026    l-0.08,0.026l-0.027,0.028l-0.108,0.025l-0.026,0.027h-0.055l-0.107,0.055h-0.027l-0.08,0.027l-0.081,0.026v0.026l-0.108,0.027    l-0.08,0.027h-0.027l-0.107,0.025l-0.027,0.029l-0.081,0.025l-0.081,0.028h-0.027l-0.08,0.026l-0.082,0.026h-0.026l-0.108,0.028    l-0.054,0.025l-0.054,0.027l-0.082,0.027h-0.025l-0.082,0.027l-0.107,0.027l0,0l-0.108,0.026h-0.081l-0.027,0.026l-0.107,0.027    h-0.026l-0.188,0.053l0,0h-0.107l-0.082,0.029h-0.026l-0.108,0.025h-0.055l-0.053,0.028l-0.107,0.026l0,0h-0.108l-0.081,0.026    h-0.027l-0.107,0.028h-0.055h-0.027l-0.134,0.025h-0.027l-0.054,0.027h-0.135l0,0l-0.107,0.027h-0.082h-0.026l-0.108,0.027h-0.055    h-0.053l-0.107,0.025h-0.027h-0.081h-0.108l0,0l-0.107,0.028h-0.081h-0.027h-0.107h-0.055l-0.054,0.026h-0.107h-0.027h-0.107    h-0.081h-0.027h-0.108h-0.053h-0.055l-0.107,0.027h-0.027h-0.081h-0.108h-1.429c1.753,2.508,2.778,5.529,2.778,8.822    c0,4.234-1.727,8.119-4.532,10.896c-2.778,2.807-6.663,4.533-10.897,4.533h-5.314c1.752,2.509,2.805,5.557,2.805,8.82    c0,4.236-1.753,8.121-4.531,10.898c-2.834,2.807-6.69,4.56-10.926,4.56h-78.555h-0.081h-0.055l0,0h-0.053V257.971z     M237.063,246.344l0.081,0.026l8.821,4.99h77.719c2.428,0,4.64-0.999,6.231-2.59c1.591-1.592,2.59-3.803,2.59-6.231    c0-2.374-0.972-4.559-2.509-6.15c-1.484-1.537-3.535-2.51-5.746-2.67h-0.27c-1.808,0-3.318-1.483-3.318-3.318    c0-1.808,1.511-3.318,3.318-3.318h17.67c2.4,0,4.611-0.997,6.203-2.59c1.619-1.592,2.59-3.803,2.59-6.203    c0-2.402-0.943-4.588-2.508-6.179c-1.484-1.511-3.508-2.509-5.746-2.644h-0.243c-1.835,0-3.318-1.51-3.318-3.317    c0-1.835,1.483-3.318,3.318-3.318h13.784h0.055h0.054l0,0h0.081h0.027h0.026h0.054h0.027h0.055l0.053-0.028l0,0h0.081h0.027h0.027    h0.054h0.027h0.054h0.054l0,0l0.055-0.025h0.053h0.027h0.054h0.027h0.027l0.081-0.027l0,0h0.054h0.054l0,0l0.08-0.027h0.027h0.027    h0.054h0.027l0.054-0.027h0.055l0,0h0.054l0.026-0.025h0.027h0.08l0,0l0.055-0.028h0.054l0,0l0.055-0.026h0.054h0.027l0.053-0.028    h0.027h0.027l0.054-0.026h0.026h0.055l0.027-0.025h0.026l0.055-0.029h0.026h0.027l0.055-0.025h0.025l0.108-0.027l0,0l0.108-0.027    l0.054-0.026h0.027l0.026-0.028h0.055l0.027-0.025h0.053l0.055-0.027l0,0l0.053-0.027h0.027c0.594-0.217,1.16-0.513,1.673-0.836    h0.027l0.081-0.08l0.08-0.028l0,0l0.027-0.026l0.162-0.109l0.054-0.053l0,0l0.054-0.027l0.027-0.026h0.027l0.188-0.161    l0.027-0.028l0.027-0.026l0.054-0.026l0,0l0.055-0.028l0.485-0.458l0.135-0.135c1.619-1.618,2.59-3.805,2.59-6.231    c0-2.4-0.945-4.559-2.51-6.15c-0.7-0.729-1.563-1.35-2.481-1.807l-0.054-0.029h-0.027l-0.565-0.268h-0.027l-0.271-0.082v-0.027    l-0.377-0.107l0,0l-0.055-0.027l-0.457-0.107c-0.54-0.135-1.16-0.135-1.674-0.215l0,0c-1.834,0-3.317-1.485-3.317-3.318    c0-1.836,1.483-3.318,3.317-3.318h4.506h0.08h11.816c2.4,0,4.612-0.999,6.231-2.59c1.591-1.619,2.589-3.805,2.589-6.231    c0-2.401-0.971-4.613-2.563-6.231c-1.618-1.592-3.831-2.59-6.258-2.59h-16.078c-28.324,1.779-61.048,0.055-90.613,0h-1.403    c-1.833,0-3.317-1.484-3.317-3.318V145.83v-6.824l-0.242,0.025c-7.958,1.053-16.457,2.186-21.608,18.236    c-0.324,1.053-1.214,1.942-2.374,2.213l-3.048,0.728v84.247L237.063,246.344z M211.597,235.175    c0.621-0.647,1.025-1.511,1.025-2.481s-0.404-1.834-1.025-2.48c-0.62-0.622-1.511-1.027-2.482-1.027    c-0.917,0-1.753,0.352-2.373,0.918l-0.108,0.109c-0.621,0.646-1.026,1.51-1.026,2.48s0.405,1.834,1.026,2.481    c0.62,0.621,1.511,1.024,2.481,1.024c0.918,0,1.727-0.35,2.374-0.916L211.597,235.175z M219.259,232.693    c0,2.806-1.133,5.342-2.967,7.176l-0.243,0.215c-1.808,1.701-4.262,2.752-6.933,2.752c-2.778,0-5.314-1.132-7.148-2.967    c-1.862-1.834-2.995-4.37-2.995-7.176s1.133-5.342,2.967-7.176l0.243-0.215c1.808-1.701,4.262-2.752,6.932-2.752    c2.806,0,5.341,1.132,7.176,2.967C218.126,227.352,219.259,229.888,219.259,232.693z M337.98,344.996    c-7.202-7.203-17.211-11.682-28.243-11.682c-11.007,0-21.016,4.479-28.218,11.682c-7.229,7.229-11.708,17.21-11.708,28.242    c0,11.034,4.479,21.041,11.681,28.244c7.229,7.23,17.238,11.708,28.245,11.708c11.032,0,21.014-4.478,28.243-11.708    c7.229-7.229,11.708-17.21,11.708-28.244C349.688,362.206,345.21,352.225,337.98,344.996z M309.737,326.408    c12.921,0,24.628,5.234,33.126,13.73c8.795,8.795,13.73,20.638,13.73,33.1c0,12.95-5.26,24.656-13.73,33.128    c-8.471,8.471-20.178,13.731-33.126,13.731c-12.896,0-24.603-5.261-33.101-13.731c-8.795-8.821-13.73-20.638-13.73-33.128    c0-12.894,5.26-24.602,13.73-33.1C285.458,331.346,297.273,326.408,309.737,326.408z M311.841,387.023    c1.43-0.297,2.589-0.971,3.479-2.023c0.891-1.051,1.349-2.266,1.349-3.695c0-1.269-0.377-2.348-1.132-3.264    c-0.756-0.918-1.996-1.619-3.696-2.104V387.023z M307.714,356.837c-1.106,0.405-1.97,1.053-2.617,1.97    c-0.647,0.916-0.972,1.915-0.972,2.994c0,0.998,0.298,1.916,0.863,2.779c0.594,0.863,1.511,1.564,2.726,2.076V356.837z     M307.714,386.565v-11.843c-3.67-1.053-6.394-2.645-8.093-4.803c-1.728-2.13-2.591-4.721-2.591-7.795    c0-3.076,0.999-5.691,2.94-7.796c1.942-2.104,4.506-3.318,7.743-3.643v-2.778h4.127v2.778c3.021,0.379,5.423,1.403,7.202,3.103    c1.781,1.672,2.914,3.939,3.427,6.771l-7.202,0.943c-0.459-2.238-1.592-3.75-3.427-4.532v11.061    c4.56,1.214,7.661,2.806,9.307,4.748c1.646,1.969,2.481,4.478,2.481,7.526c0,3.398-1.051,6.285-3.129,8.633    c-2.077,2.32-4.963,3.776-8.659,4.369v5.262h-4.127v-5.207c-3.237-0.405-5.881-1.592-7.932-3.614    c-2.023-2.023-3.345-4.884-3.911-8.579l7.391-0.863c0.298,1.511,0.863,2.806,1.699,3.885    C305.771,385.297,306.715,386.08,307.714,386.565z M222.928,390.262c-0.54-1.727,0.432-3.589,2.158-4.128    c1.754-0.54,3.615,0.432,4.154,2.185c0.027,0.107,13.515,46.48,57.837,59.429c1.753,0.512,2.751,2.348,2.265,4.101    c-0.512,1.753-2.347,2.752-4.1,2.239C237.387,440.113,222.954,390.396,222.928,390.262z M87.21,165.253v80.604h97.276v-80.604    H87.21z M284.406,56.781c0-1.834,1.483-3.318,3.317-3.318c1.808,0,3.292,1.484,3.292,3.318v39.952h9.685V29.32    c0-1.834,1.51-3.318,3.317-3.318c1.834,0,3.318,1.484,3.318,3.318v67.413h12.787v-34.26c0-1.833,1.51-3.317,3.318-3.317    c1.834,0,3.317,1.484,3.317,3.317v34.26h22.66c0.081,11.034,0.432,21.446,1.024,31.292c0.567,9.308,1.35,18.049,2.348,26.274    h-85.138v-8.442c1.619-16.295,2.32-32.748,2.428-49.124h14.325V56.781z M227.108,251.36v-91.61h-35.985v2.104v0.082v87.24v0.08    v2.104H227.108z" style="fill-rule:evenodd;clip-rule:evenodd;"/></g></g><g id="Layer_1"/></svg>