<svg height="512pt" viewBox="0 0 512 512" width="512pt" xmlns="http://www.w3.org/2000/svg"><path d="m495.839844 417.824219-67.292969-67.296875c-5.859375-5.855469-15.355469-5.855469-21.214844 0-5.855469 5.859375-5.855469 15.355468 0 21.214844l-35.589843 35.59375c-5.859376-5.859376-15.355469-5.859376-21.214844 0-5.855469 5.855468-5.855469 15.351562 0 21.210937l67.296875 67.296875c10.417969 10.417969 24.273437 16.15625 39.007812 16.15625s28.589844-5.738281 39.007813-16.15625c21.507812-21.511719 21.511718-56.511719 0-78.019531zm0 0" fill="#a24603"/><path d="m402.734375 69.097656c-44.558594-44.558594-103.804687-69.097656-166.820313-69.097656-63.011718 0-122.257812 24.539062-166.816406 69.097656s-69.097656 103.804688-69.097656 166.816406c0 63.019532 24.539062 122.261719 69.097656 166.820313s103.804688 69.097656 166.816406 69.097656c63.019532 0 122.261719-24.539062 166.820313-69.097656s69.097656-103.804687 69.097656-166.820313c0-63.011718-24.539062-122.257812-69.097656-166.816406zm0 0" fill="#0065a3"/><path d="m402.734375 69.097656c-44.558594-44.558594-103.804687-69.097656-166.820313-69.097656v471.832031c63.019532 0 122.261719-24.539062 166.820313-69.097656s69.097656-103.804687 69.097656-166.820313c0-63.011718-24.539062-122.257812-69.097656-166.816406zm0 0" fill="#005183"/><path d="m235.914062 80.332031c-85.785156 0-155.582031 69.796875-155.582031 155.582031 0 85.789063 69.796875 155.585938 155.582031 155.585938 85.792969 0 155.585938-69.796875 155.585938-155.585938 0-85.785156-69.792969-155.582031-155.585938-155.582031zm0 0" fill="#a8ebfa"/><path d="m235.914062 80.332031v311.167969c85.792969 0 155.585938-69.796875 155.585938-155.585938 0-85.785156-69.792969-155.582031-155.585938-155.582031zm0 0" fill="#76e2f8"/><path d="m388.308594 226.664062c-2.753906-3.515624-68.414063-86.082031-152.394532-86.082031-83.976562 0-149.636718 82.566407-152.390624 86.082031-4.257813 5.433594-4.257813 13.070313 0 18.503907 2.753906 3.515625 68.414062 86.082031 152.390624 86.082031 83.980469 0 149.640626-82.566406 152.394532-86.082031 4.257812-5.433594 4.257812-13.070313 0-18.503907zm0 0" fill="#fff4f4"/><path d="m388.308594 226.664062c-2.753906-3.515624-68.414063-86.082031-152.394532-86.082031v190.667969c83.980469 0 149.640626-82.566406 152.394532-86.082031 4.257812-5.433594 4.257812-13.070313 0-18.503907zm0 0" fill="#d5eded"/><path d="m316.25 235.914062c0 44.371094-35.964844 80.335938-80.335938 80.335938-44.367187 0-80.332031-35.964844-80.332031-80.335938 0-44.367187 35.964844-80.332031 80.332031-80.332031 44.371094 0 80.335938 35.964844 80.335938 80.332031zm0 0" fill="#008adf"/><path d="m235.914062 155.582031v160.667969c44.371094 0 80.335938-35.964844 80.335938-80.335938 0-44.363281-35.964844-80.332031-80.335938-80.332031zm0 0" fill="#0065a3"/><path d="m235.917969 250.910156c-3.949219 0-7.820313-1.597656-10.609375-4.390625-2.789063-2.789062-4.390625-6.660156-4.390625-10.609375 0-3.9375 1.601562-7.808594 4.390625-10.597656 2.789062-2.792969 6.660156-4.390625 10.609375-4.390625s7.808593 1.597656 10.601562 4.390625c2.796875 2.789062 4.398438 6.660156 4.398438 10.597656 0 3.949219-1.601563 7.820313-4.398438 10.609375-2.792969 2.792969-6.652343 4.390625-10.601562 4.390625zm0 0" fill="#00215a"/></svg>