<svg width="159" height="177" viewBox="0 0 159 177" fill="none" xmlns="http://www.w3.org/2000/svg">
<g id="spacestation">
<g id="bg-sh-right-spacestation copy">
<g id="Group">
<g id="Group 7">
<rect id="Rectangle-path" width="37" height="113.324" transform="matrix(-1 0 0 1 53.3905 62.8159)" fill="#493E5E"/>
<rect id="Rectangle 2" width="1" height="4.02286" transform="matrix(-1 0 0 1 19 62.3545)" fill="#FF6C37"/>
<rect id="Rectangle 2 Copy" width="1" height="4.02286" transform="matrix(-1 0 0 1 22 62.3545)" fill="#FF6C37"/>
<rect id="Rectangle 2 Copy 3" width="1" height="4.02286" transform="matrix(-1 0 0 1 25 62.3545)" fill="#7D728E"/>
<rect id="Rectangle 2 Copy 4" width="1" height="4.02286" transform="matrix(-1 0 0 1 22 62.3545)" fill="#7D728E"/>
<rect id="Rectangle 2 Copy 5" width="1" height="4.02286" transform="matrix(-1 0 0 1 28 62.3545)" fill="#7D728E"/>
<rect id="Rectangle 2 Copy 6" width="1" height="4.02286" transform="matrix(-1 0 0 1 31 62.3545)" fill="#7D728E"/>
<rect id="Rectangle 2 Copy 7" width="1" height="4.02286" transform="matrix(-1 0 0 1 34 62.3545)" fill="#7D728E"/>
<rect id="Rectangle 2 Copy 8" width="1" height="4.02286" transform="matrix(-1 0 0 1 37 62.3545)" fill="#7D728E"/>
<rect id="Rectangle 2 Copy 9" width="1" height="4.02286" transform="matrix(-1 0 0 1 40 62.3545)" fill="#7D728E"/>
<rect id="Rectangle 2 Copy 10" width="1" height="4.02286" transform="matrix(-1 0 0 1 43 62.3545)" fill="#7D728E"/>
<rect id="Rectangle 2 Copy 11" width="1" height="4.02286" transform="matrix(-1 0 0 1 46 62.3545)" fill="#7D728E"/>
<rect id="Rectangle 2 Copy 12" width="1" height="4.02286" transform="matrix(-1 0 0 1 49 62.3545)" fill="#7D728E"/>
<rect id="Rectangle 2 Copy 13" width="1" height="4.02286" transform="matrix(-1 0 0 1 52 62.3545)" fill="#7D728E"/>
<rect id="Rectangle 2 Copy 2" width="1" height="4.02286" transform="matrix(-1 0 0 1 19 62.3545)" fill="#7D728E"/>
<g id="Group_2">
<g id="Group_3">
<path id="Shape" fill-rule="evenodd" clip-rule="evenodd" d="M25.9342 87.3353C25.9342 92.6099 30.1771 96.8775 35.4211 96.8775C40.6652 96.8775 44.9081 92.6099 44.9081 87.3353C44.9081 82.0607 40.6652 77.793 35.4211 77.793C30.1771 77.777 25.9342 82.0607 25.9342 87.3353Z" fill="#312548"/>
</g>
<g id="Group_4">
<path id="Mask" fill-rule="evenodd" clip-rule="evenodd" d="M28.3973 87.3353C28.3973 91.2353 31.5437 94.4001 35.4211 94.4001C39.2985 94.4001 42.4449 91.2353 42.4449 87.3353C42.4449 83.4353 39.2985 80.2705 35.4211 80.2705C31.5437 80.2705 28.3973 83.4353 28.3973 87.3353Z" fill="#CDDCE6"/>
<mask id="mask0" mask-type="alpha" maskUnits="userSpaceOnUse" x="28" y="80" width="15" height="15">
<path id="Mask_2" fill-rule="evenodd" clip-rule="evenodd" d="M28.3973 87.3353C28.3973 91.2353 31.5437 94.4001 35.4211 94.4001C39.2985 94.4001 42.4449 91.2353 42.4449 87.3353C42.4449 83.4353 39.2985 80.2705 35.4211 80.2705C31.5437 80.2705 28.3973 83.4353 28.3973 87.3353Z" fill="white"/>
</mask>
<g mask="url(#mask0)">
<g id="Group_5">
<rect id="Rectangle-path_2" opacity="0.5" width="1.24415" height="15.7342" transform="matrix(-0.589488 0.807777 0.80456 0.593871 28.7234 83.1455)" fill="white"/>
<path id="Shape_2" opacity="0.5" fill-rule="evenodd" clip-rule="evenodd" d="M42.1112 91.5392L42.8422 90.5322L30.1929 81.1978L29.446 82.1887L42.1112 91.5392Z" fill="white"/>
</g>
</g>
</g>
</g>
<g id="Group_6">
<g id="Group_7">
<path id="Shape_3" fill-rule="evenodd" clip-rule="evenodd" d="M25.9342 112.046C25.9342 117.32 30.1771 121.588 35.4211 121.588C40.6652 121.588 44.9081 117.32 44.9081 112.046C44.9081 106.771 40.6652 102.503 35.4211 102.503C30.1771 102.487 25.9342 106.771 25.9342 112.046Z" fill="#312548"/>
</g>
<g id="Group_8">
<path id="Mask_3" fill-rule="evenodd" clip-rule="evenodd" d="M28.3973 112.046C28.3973 115.946 31.5437 119.111 35.4211 119.111C39.2985 119.111 42.4449 115.946 42.4449 112.046C42.4449 108.146 39.2985 104.981 35.4211 104.981C31.5437 104.981 28.3973 108.146 28.3973 112.046Z" fill="#CDDCE6"/>
<mask id="mask1" mask-type="alpha" maskUnits="userSpaceOnUse" x="28" y="104" width="15" height="16">
<path id="Mask_4" fill-rule="evenodd" clip-rule="evenodd" d="M28.3973 112.046C28.3973 115.946 31.5437 119.111 35.4211 119.111C39.2985 119.111 42.4449 115.946 42.4449 112.046C42.4449 108.146 39.2985 104.981 35.4211 104.981C31.5437 104.981 28.3973 108.146 28.3973 112.046Z" fill="white"/>
</mask>
<g mask="url(#mask1)">
<g id="Group_9">
<rect id="Rectangle-path_3" opacity="0.5" width="1.2441" height="15.7336" transform="matrix(-0.589311 0.807906 0.804692 0.593693 28.7281 107.833)" fill="white"/>
<path id="Shape_4" opacity="0.5" fill-rule="evenodd" clip-rule="evenodd" d="M42.1112 116.25L42.8422 115.243L30.1929 105.908L29.446 106.899L42.1112 116.25Z" fill="white"/>
</g>
</g>
</g>
</g>
</g>
<g id="Group_10">
<rect id="Rectangle-path_4" width="103.768" height="3.99593" transform="matrix(-1 0 0 1 142.552 153.763)" fill="#6D7F91"/>
<rect id="Rectangle-path_5" width="2.54257" height="19.0206" transform="matrix(-1 0 0 1 138.149 157.12)" fill="#677A7F"/>
<rect id="Rectangle-path_6" width="2.06583" height="19.0206" transform="matrix(-1 0 0 1 126.23 157.12)" fill="#6D7F91"/>
<rect id="Rectangle-path_7" width="2.06583" height="19.0206" transform="matrix(-1 0 0 1 115.266 157.12)" fill="#6D7F91"/>
<rect id="Rectangle-path_8" width="1.90692" height="19.0206" transform="matrix(-1 0 0 1 104.301 157.12)" fill="#6D7F91"/>
<rect id="Rectangle-path_9" width="2.38365" height="19.0206" transform="matrix(-1 0 0 1 93.3359 157.12)" fill="#6D7F91"/>
<rect id="Rectangle-path_10" width="1.90692" height="19.0206" transform="matrix(-1 0 0 1 81.8944 157.12)" fill="#6D7F91"/>
<rect id="Rectangle-path_11" width="2.06583" height="19.0206" transform="matrix(-1 0 0 1 71.0885 157.12)" fill="#6D7F91"/>
<rect id="Rectangle-path_12" width="2.06583" height="19.0206" transform="matrix(-1 0 0 1 60.1238 157.12)" fill="#6D7F91"/>
<rect id="Rectangle-path_13" width="1.90693" height="19.0206" transform="matrix(-1 0 0 1 49.1589 157.12)" fill="#6D7F91"/>
<rect id="Rectangle-path_14" width="1.43019" height="18.3813" transform="matrix(-1 0 0 1 135.606 157.759)" fill="#566366"/>
<rect id="Rectangle-path_15" width="1.4302" height="18.3813" transform="matrix(-1 0 0 1 124.165 157.759)" fill="#284D66"/>
<rect id="Rectangle-path_16" width="1.43019" height="18.3813" transform="matrix(-1 0 0 1 113.2 157.759)" fill="#284D66"/>
<rect id="Rectangle-path_17" width="1.5891" height="18.3813" transform="matrix(-1 0 0 1 102.394 157.759)" fill="#284D66"/>
<rect id="Rectangle-path_18" width="1.5891" height="18.3813" transform="matrix(-1 0 0 1 91.4291 157.759)" fill="#284D66"/>
<rect id="Rectangle-path_19" width="1.43019" height="18.3813" transform="matrix(-1 0 0 1 79.9875 157.759)" fill="#284D66"/>
<rect id="Rectangle-path_20" width="1.4302" height="18.3813" transform="matrix(-1 0 0 1 69.0227 157.759)" fill="#284D66"/>
<rect id="Rectangle-path_21" width="1.43019" height="18.3813" transform="matrix(-1 0 0 1 58.0579 157.759)" fill="#284D66"/>
<rect id="Rectangle-path_22" width="1.5891" height="18.3813" transform="matrix(-1 0 0 1 47.252 157.759)" fill="#284D66"/>
</g>
<g id="Group 3">
<path id="Rectangle-path_23" d="M147.377 82.5081C147.377 77.9883 143.713 74.3242 139.193 74.3242C134.673 74.3242 131.009 77.9883 131.009 82.5081V176.14H147.377V82.5081Z" fill="#493E5E"/>
<g id="Group 6">
<path id="Shape_5" fill-rule="evenodd" clip-rule="evenodd" d="M133.44 89.9761C133.44 93.2687 136.094 95.938 139.368 95.938C142.641 95.938 145.295 93.2687 145.295 89.9761C145.295 86.6834 142.641 84.0142 139.368 84.0142C136.094 84.0142 133.44 86.6834 133.44 89.9761Z" fill="#312548"/>
<path id="Mask_5" fill-rule="evenodd" clip-rule="evenodd" d="M134.982 89.9761C134.982 92.4056 136.936 94.3716 139.352 94.3716C141.767 94.3716 143.722 92.4056 143.722 89.9761C143.722 87.5466 141.767 85.5806 139.352 85.5806C136.936 85.5806 134.982 87.5466 134.982 89.9761Z" fill="#CDDCE6"/>
<mask id="mask2" mask-type="alpha" maskUnits="userSpaceOnUse" x="134" y="85" width="10" height="10">
<path id="Mask_6" fill-rule="evenodd" clip-rule="evenodd" d="M134.982 89.9761C134.982 92.4056 136.936 94.3716 139.352 94.3716C141.767 94.3716 143.722 92.4056 143.722 89.9761C143.722 87.5466 141.767 85.5806 139.352 85.5806C136.936 85.5806 134.982 87.5466 134.982 89.9761Z" fill="white"/>
</mask>
<g mask="url(#mask2)">
<rect id="Rectangle-path_24" opacity="0.5" width="1.24412" height="9.80976" transform="matrix(-0.589601 0.807695 0.804477 0.593984 135.129 87.561)" fill="white"/>
<path id="Shape_6" opacity="0.5" fill-rule="evenodd" clip-rule="evenodd" d="M143.515 92.5653L144.246 91.5583L136.348 85.7402L135.618 86.7472L143.515 92.5653Z" fill="white"/>
</g>
</g>
<g id="Group 5">
<path id="Shape_7" fill-rule="evenodd" clip-rule="evenodd" d="M133.44 106.48C133.44 109.773 136.094 112.442 139.368 112.442C142.641 112.442 145.295 109.773 145.295 106.48C145.295 103.187 142.641 100.518 139.368 100.518C136.094 100.518 133.44 103.187 133.44 106.48Z" fill="#312548"/>
<path id="Mask_7" fill-rule="evenodd" clip-rule="evenodd" d="M134.982 106.48C134.982 108.91 136.936 110.876 139.352 110.876C141.767 110.876 143.722 108.91 143.722 106.48C143.722 104.051 141.767 102.085 139.352 102.085C136.936 102.069 134.982 104.035 134.982 106.48Z" fill="#CDDCE6"/>
<mask id="mask3" mask-type="alpha" maskUnits="userSpaceOnUse" x="134" y="102" width="10" height="9">
<path id="Mask_8" fill-rule="evenodd" clip-rule="evenodd" d="M134.982 106.48C134.982 108.91 136.936 110.876 139.352 110.876C141.767 110.876 143.722 108.91 143.722 106.48C143.722 104.051 141.767 102.085 139.352 102.085C136.936 102.069 134.982 104.035 134.982 106.48Z" fill="white"/>
</mask>
<g mask="url(#mask3)">
<path id="Shape_8" opacity="0.5" fill-rule="evenodd" clip-rule="evenodd" d="M142.308 110.875L143.039 109.868L135.141 104.05L134.41 105.057L142.308 110.875Z" fill="white"/>
<path id="Shape_9" opacity="0.5" fill-rule="evenodd" clip-rule="evenodd" d="M143.515 109.07L144.246 108.063L136.348 102.229L135.618 103.235L143.515 109.07Z" fill="white"/>
</g>
</g>
<g id="Group 4">
<path id="Shape_10" fill-rule="evenodd" clip-rule="evenodd" d="M133.44 122.968C133.44 126.261 136.094 128.93 139.368 128.93C142.641 128.93 145.295 126.261 145.295 122.968C145.295 119.676 142.641 117.006 139.368 117.006C136.094 117.006 133.44 119.676 133.44 122.968Z" fill="#312548"/>
<path id="Mask_9" fill-rule="evenodd" clip-rule="evenodd" d="M134.982 122.968C134.982 125.398 136.936 127.364 139.352 127.364C141.767 127.364 143.722 125.398 143.722 122.968C143.722 120.539 141.767 118.573 139.352 118.573C136.936 118.573 134.982 120.539 134.982 122.968Z" fill="#CDDCE6"/>
<mask id="mask4" mask-type="alpha" maskUnits="userSpaceOnUse" x="134" y="118" width="10" height="10">
<path id="Mask_10" fill-rule="evenodd" clip-rule="evenodd" d="M134.982 122.968C134.982 125.398 136.936 127.364 139.352 127.364C141.767 127.364 143.722 125.398 143.722 122.968C143.722 120.539 141.767 118.573 139.352 118.573C136.936 118.573 134.982 120.539 134.982 122.968Z" fill="white"/>
</mask>
<g mask="url(#mask4)">
<rect id="Rectangle-path_25" opacity="0.5" width="1.24411" height="9.80958" transform="matrix(-0.58931 0.807907 0.804691 0.593694 135.166 120.55)" fill="white"/>
<path id="Shape_11" opacity="0.5" fill-rule="evenodd" clip-rule="evenodd" d="M143.515 125.557L144.246 124.55L136.348 118.732L135.618 119.739L143.515 125.557Z" fill="white"/>
</g>
</g>
</g>
<rect id="Rectangle-path_26" width="19.8638" height="96.9079" transform="matrix(-1 0 0 1 121.145 46.3525)" fill="#564871"/>
<path id="Shape_12" fill-rule="evenodd" clip-rule="evenodd" d="M111.293 142.255V153.763H89.2838L101.25 142.255H111.293Z" fill="#493E5E"/>
<path id="Shape Copy" fill-rule="evenodd" clip-rule="evenodd" d="M111 142.255V153.763H133.009L121.043 142.255H111Z" fill="#493E5E"/>
<rect id="Rectangle-path_27" width="19.8638" height="2.87707" transform="matrix(-1 0 0 1 121.145 46.3525)" fill="#493E5E"/>
<rect id="Rectangle-path_28" width="20.3405" height="70.3283" transform="matrix(-1 0 0 1 84.437 77.8408)" fill="#4E687A"/>
<rect id="Rectangle-path_29" width="20.3405" height="13.9058" transform="matrix(-1 0 0 1 84.437 77.8408)" fill="#F4815B"/>
<rect id="Rectangle-path_30" width="11.9183" height="7.35251" transform="matrix(-1 0 0 1 79.9875 105.812)" fill="#6D7F91"/>
<rect id="Rectangle-path_31" width="5.40295" height="17.9017" transform="matrix(-1 0 0 1 76.9683 130.267)" fill="#F99D78"/>
<rect id="Rectangle-path_32" width="3.01929" height="6.87299" transform="matrix(-1 0 0 1 79.9875 81.8364)" fill="#F99D78"/>
<rect id="Rectangle-path_33" width="3.01929" height="6.87299" transform="matrix(-1 0 0 1 71.0885 81.8364)" fill="#F99D78"/>
<rect id="Rectangle-path_34" width="14.3019" height="15.9837" transform="matrix(-1 0 0 1 81.4177 61.8569)" fill="#4E687A"/>
<path id="Shape_13" fill-rule="evenodd" clip-rule="evenodd" d="M81.5448 61.8249L77.4449 55.0478V39.3198H71.0885V55.0478L66.8615 61.8568H81.4177" fill="#F5F8FB"/>
<path id="Shape_14" fill-rule="evenodd" clip-rule="evenodd" d="M64.0964 148.169H53.8626L59.6469 140.289V123.41L64.0964 117.912V148.169Z" fill="#325065"/>
<path id="Shape_15" fill-rule="evenodd" clip-rule="evenodd" d="M84.437 148.169H94.1782L88.4098 140.289V123.41L84.437 117.912V148.169Z" fill="#325065"/>
<path id="Shape_16" fill-rule="evenodd" clip-rule="evenodd" d="M77.75 39.3798L74 25.1431L70.75 39.3798H77.75Z" fill="#4E687A"/>
<rect id="Rectangle-path_35" width="1" height="32.4469" transform="matrix(-1 0 0 1 74.5 3.01709)" fill="#4E687A"/>
<rect id="Rectangle-path_36" width="0.953468" height="9.11071" transform="matrix(-1 0 0 1 120.192 37.2422)" fill="#493E5E"/>
<g id="Group_11">
<path id="Shape_17" fill-rule="evenodd" clip-rule="evenodd" d="M101.25 67.2914H121.066C121.527 67.2914 121.892 67.0356 121.892 66.5721C121.892 66.1086 121.527 65.8528 121.066 65.8528H103.506L121.606 50.2847C121.956 49.997 122.003 49.3896 121.701 49.038C121.415 48.6863 120.891 48.6064 120.541 48.9101L100.725 65.7729C100.455 65.9967 100.36 66.3803 100.487 66.7159C100.598 67.0516 100.9 67.2914 101.25 67.2914Z" fill="#615B6B"/>
<g id="Group_12">
<g id="Group_13">
<path id="Shape_18" fill-rule="evenodd" clip-rule="evenodd" d="M101.25 84.2338H121.066C121.415 84.2338 121.717 83.9621 121.844 83.6264C121.972 83.3068 121.86 82.9072 121.606 82.6834L101.79 65.7886C101.44 65.485 100.916 65.5329 100.63 65.8845C100.328 66.2362 100.376 66.6837 100.725 66.9874L118.825 82.3318H101.25C100.789 82.3318 100.423 82.8273 100.423 83.2908C100.423 83.7543 100.805 84.2338 101.25 84.2338Z" fill="#7D728E"/>
<path id="Shape_19" fill-rule="evenodd" clip-rule="evenodd" d="M101.25 67.2914H121.066C121.527 67.2914 121.892 67.0356 121.892 66.5721C121.892 66.1086 121.527 65.8528 121.066 65.8528H103.506L121.606 50.2847C121.956 49.997 122.003 49.3896 121.701 49.038C121.415 48.6863 120.891 48.6064 120.541 48.9101L100.725 65.7729C100.455 65.9967 100.36 66.3803 100.487 66.7159C100.598 67.0516 100.9 67.2914 101.25 67.2914Z" fill="#7D728E"/>
</g>
<g id="Group_14">
<path id="Shape_20" fill-rule="evenodd" clip-rule="evenodd" d="M101.25 117.8H121.066C121.415 117.8 121.717 117.624 121.844 117.288C121.972 116.969 121.86 116.617 121.606 116.393L101.79 99.5146C101.44 99.2269 100.916 99.2748 100.63 99.6105C100.328 99.9621 100.376 100.474 100.725 100.777L118.825 116.186H101.25C100.789 116.186 100.423 116.521 100.423 116.985C100.423 117.448 100.805 117.8 101.25 117.8Z" fill="#7D728E"/>
<path id="Shape_21" fill-rule="evenodd" clip-rule="evenodd" d="M101.25 100.697H121.066C121.527 100.697 121.892 100.441 121.892 99.9779C121.892 99.5144 121.527 99.2587 121.066 99.2587H103.506L121.606 83.8823C121.956 83.5946 122.003 83.0832 121.701 82.7315C121.415 82.3799 120.891 82.3479 120.541 82.6356L100.725 99.5304C100.455 99.7542 100.36 99.9779 100.487 100.298C100.598 100.633 100.9 100.697 101.25 100.697Z" fill="#7D728E"/>
</g>
<path id="Shape_22" fill-rule="evenodd" clip-rule="evenodd" d="M101.25 135.222H121.066C121.527 135.222 121.892 134.647 121.892 134.183C121.892 133.72 121.527 133.144 121.066 133.144H103.506L121.606 117.88C121.956 117.576 122.003 117.144 121.701 116.793C121.415 116.441 120.891 116.441 120.541 116.729L100.725 133.64C100.455 133.863 100.36 134.295 100.487 134.615C100.598 134.95 100.9 135.222 101.25 135.222Z" fill="#7D728E"/>
</g>
</g>
<path id="Oval" fill-rule="evenodd" clip-rule="evenodd" d="M73.9992 3.96513C72.9282 3.96513 72.0599 3.09182 72.0599 2.01455C72.0599 0.93727 72.9282 0.0639648 73.9992 0.0639648C75.0702 0.0639648 75.9385 0.93727 75.9385 2.01455C75.9385 3.09182 75.0702 3.96513 73.9992 3.96513Z" fill="#F4815B"/>
<path id="Shape_23" fill-rule="evenodd" clip-rule="evenodd" d="M117.379 37.5618C117.379 38.7766 118.348 39.7516 119.556 39.7516C120.748 39.7516 121.733 38.7766 121.733 37.5618C121.733 36.3471 120.764 35.3721 119.556 35.3721C118.364 35.3721 117.379 36.3471 117.379 37.5618Z" fill="#F4815B"/>
<rect id="Rectangle-path_37" width="3.01929" height="5.5943" transform="matrix(-1 0 0 1 84.437 148.169)" fill="#325065"/>
<rect id="Rectangle-path_38" width="3.01929" height="5.5943" transform="matrix(-1 0 0 1 78.5574 148.169)" fill="#325065"/>
<rect id="Rectangle-path_39" width="3.01929" height="5.5943" transform="matrix(-1 0 0 1 72.5187 148.169)" fill="#325065"/>
<rect id="Rectangle-path_40" width="2.54256" height="5.5943" transform="matrix(-1 0 0 1 66.639 148.169)" fill="#325065"/>
</g>
<rect id="Rectangle-path_41" width="39.7276" height="40.9183" transform="matrix(-1 0 0 1 39.7832 135.222)" fill="#F4815B"/>
<rect id="Rectangle-path_42" width="22.8173" height="40.9183" transform="matrix(-1 0 0 1 22.8728 135.222)" fill="#FF6C37"/>
<path id="Shape_24" fill-rule="evenodd" clip-rule="evenodd" d="M39.7832 135.222V129.292L30.8524 135.222H39.7832Z" fill="#FF6C37"/>
<path id="Shape_25" fill-rule="evenodd" clip-rule="evenodd" d="M38.4407 134.363V131.145L33.7687 134.363H38.4407Z" fill="#F99D78"/>
<path id="Shape_26" fill-rule="evenodd" clip-rule="evenodd" d="M30.8842 135.222V129.292L21.9852 135.222H30.8842Z" fill="#FF6C37"/>
<path id="Shape_27" fill-rule="evenodd" clip-rule="evenodd" d="M21.8263 135.222V129.292L13.1339 135.222H21.8263Z" fill="#FF6C37"/>
<path id="Shape_28" fill-rule="evenodd" clip-rule="evenodd" d="M29.6313 134.363V131.145L25.2136 134.363H29.6313Z" fill="#F99D78"/>
<path id="Shape_29" fill-rule="evenodd" clip-rule="evenodd" d="M20.822 134.363V131.145L15.9466 134.363H20.822Z" fill="#F99D78"/>
<rect id="Rectangle-path_43" width="10.4881" height="21.4182" transform="matrix(-1 0 0 1 15.9467 154.722)" fill="#493E5E"/>
<g id="Group_15">
<g id="Group_16">
<path id="Oval_2" fill-rule="evenodd" clip-rule="evenodd" d="M30.9319 151.941C28.0971 151.941 25.7991 149.63 25.7991 146.778C25.7991 143.927 28.0971 141.616 30.9319 141.616C33.7667 141.616 36.0647 143.927 36.0647 146.778C36.0647 149.63 33.7667 151.941 30.9319 151.941Z" fill="#FF6C37"/>
</g>
<g id="Group_17">
<path id="Mask_11" fill-rule="evenodd" clip-rule="evenodd" d="M30.9319 150.599C28.8343 150.599 27.1339 148.888 27.1339 146.779C27.1339 144.669 28.8343 142.958 30.9319 142.958C33.0295 142.958 34.7299 144.669 34.7299 146.779C34.7299 148.888 33.0295 150.599 30.9319 150.599Z" fill="#CDDCE6"/>
<mask id="mask5" mask-type="alpha" maskUnits="userSpaceOnUse" x="27" y="142" width="8" height="9">
<path id="Mask_12" fill-rule="evenodd" clip-rule="evenodd" d="M30.9319 150.599C28.8343 150.599 27.1339 148.888 27.1339 146.779C27.1339 144.669 28.8343 142.958 30.9319 142.958C33.0295 142.958 34.7299 144.669 34.7299 146.779C34.7299 148.888 33.0295 150.599 30.9319 150.599Z" fill="white"/>
</mask>
<g mask="url(#mask5)">
<g id="Group_18" opacity="0.5">
<rect id="Rectangle-path_44" width="0.803826" height="8.50359" transform="matrix(-0.589423 0.807824 0.804608 0.593806 27.3289 144.495)" fill="white"/>
<path id="Shape_30" fill-rule="evenodd" clip-rule="evenodd" d="M34.5391 149.048L34.9364 148.505L28.1033 143.47L27.706 144.013L34.5391 149.048Z" fill="white"/>
</g>
</g>
</g>
</g>
<g id="Group_19">
<g id="Group_20">
<path id="Shape_31" fill-rule="evenodd" clip-rule="evenodd" d="M26.387 163.321C26.387 166.167 28.6753 168.484 31.5198 168.484C34.3484 168.484 36.6526 166.167 36.6526 163.321C36.6526 160.476 34.3643 158.159 31.5198 158.159C28.6753 158.159 26.387 160.476 26.387 163.321Z" fill="#FF6C37"/>
</g>
<g id="Group_21">
<path id="Mask_13" fill-rule="evenodd" clip-rule="evenodd" d="M27.7218 163.322C27.7218 165.431 29.4222 167.142 31.5198 167.142C33.6174 167.142 35.3177 165.431 35.3177 163.322C35.3177 161.212 33.6174 159.501 31.5198 159.501C29.4222 159.517 27.7218 161.212 27.7218 163.322Z" fill="#CDDCE6"/>
<mask id="mask6" mask-type="alpha" maskUnits="userSpaceOnUse" x="27" y="159" width="9" height="9">
<path id="Mask_14" fill-rule="evenodd" clip-rule="evenodd" d="M27.7218 163.322C27.7218 165.431 29.4222 167.142 31.5198 167.142C33.6174 167.142 35.3177 165.431 35.3177 163.322C35.3177 161.212 33.6174 159.501 31.5198 159.501C29.4222 159.517 27.7218 161.212 27.7218 163.322Z" fill="white"/>
</mask>
<g mask="url(#mask6)">
<g id="Group_22" opacity="0.5">
<path id="Shape_32" fill-rule="evenodd" clip-rule="evenodd" d="M34.3483 166.646L34.7456 166.103L27.8966 161.052L27.4993 161.595L34.3483 166.646Z" fill="white"/>
<path id="Shape_33" fill-rule="evenodd" clip-rule="evenodd" d="M35.127 165.591L35.5243 165.048L28.6911 160.013L28.2939 160.556L35.127 165.591Z" fill="white"/>
</g>
</g>
</g>
</g>
<path id="Shape_34" fill-rule="evenodd" clip-rule="evenodd" d="M6.45972 165.879C6.45972 166.31 6.80933 166.678 7.25428 166.678C7.68333 166.678 8.04883 166.326 8.04883 165.879C8.04883 165.447 7.69923 165.08 7.25428 165.08C6.80933 165.096 6.45972 165.447 6.45972 165.879Z" fill="#7D728E"/>
<rect id="Rectangle" width="1" height="16.0914" transform="matrix(-1 0 0 1 7 119.68)" fill="#493E5E"/>
<path id="Oval_3" fill-rule="evenodd" clip-rule="evenodd" d="M6.48521 120.661C5.11265 120.661 3.99997 119.542 3.99997 118.161C3.99997 116.781 5.11265 115.662 6.48521 115.662C7.85778 115.662 8.97046 116.781 8.97046 118.161C8.97046 119.542 7.85778 120.661 6.48521 120.661Z" fill="#F4815B"/>
<rect id="Rectangle-path_45" width="39.7276" height="1.43855" transform="matrix(-1 0 0 1 39.7832 135.222)" fill="#493E5E"/>
<g id="Group_23">
<rect id="Rectangle-path_46" width="18.4336" height="39.4797" transform="matrix(-1 0 0 1 143.075 136.661)" fill="#F4815B"/>
<path id="Shape_35" fill-rule="evenodd" clip-rule="evenodd" d="M124.641 146.123V145.084V136.661H126.183H126.707H127.915H128.439H129.631H130.155H131.363H131.888H133.079H133.604H134.653V145.084V146.123V151.174V158.351V176.14H124.641V171.01V163.833V146.123Z" fill="#FF6C37"/>
<rect id="Rectangle-path_47" width="11.4415" height="7.03282" transform="matrix(-1 0 0 1 143.141 151.206)" fill="#493E5E"/>
<rect id="Rectangle-path_48" width="11.9183" height="7.51234" transform="matrix(-1 0 0 1 136.56 163.673)" fill="#493E5E"/>
<g id="Group_24">
<path id="Shape_36" fill-rule="evenodd" clip-rule="evenodd" d="M140.532 151.973C140.532 152.117 140.659 152.245 140.802 152.245C140.946 152.245 141.073 152.117 141.073 151.973C141.073 151.83 140.946 151.702 140.802 151.702C140.659 151.702 140.532 151.814 140.532 151.973Z" fill="#E8E0CB"/>
<path id="Shape_37" fill-rule="evenodd" clip-rule="evenodd" d="M139.102 151.973C139.102 152.117 139.229 152.245 139.372 152.245C139.515 152.245 139.642 152.117 139.642 151.973C139.642 151.83 139.515 151.702 139.372 151.702C139.229 151.702 139.102 151.814 139.102 151.973Z" fill="#E8E0CB"/>
<path id="Shape_38" fill-rule="evenodd" clip-rule="evenodd" d="M137.688 151.973C137.688 152.117 137.815 152.245 137.958 152.245C138.101 152.245 138.228 152.117 138.228 151.973C138.228 151.83 138.101 151.702 137.958 151.702C137.815 151.702 137.688 151.814 137.688 151.973Z" fill="#E8E0CB"/>
<path id="Shape_39" fill-rule="evenodd" clip-rule="evenodd" d="M136.258 151.973C136.258 152.117 136.385 152.245 136.528 152.245C136.671 152.245 136.798 152.117 136.798 151.973C136.798 151.83 136.671 151.702 136.528 151.702C136.385 151.702 136.258 151.814 136.258 151.973Z" fill="#E8E0CB"/>
<path id="Shape_40" fill-rule="evenodd" clip-rule="evenodd" d="M134.843 151.973C134.843 152.117 134.971 152.245 135.114 152.245C135.257 152.245 135.384 152.117 135.384 151.973C135.384 151.83 135.257 151.702 135.114 151.702C134.955 151.702 134.843 151.814 134.843 151.973Z" fill="#E8E0CB"/>
<path id="Shape_41" fill-rule="evenodd" clip-rule="evenodd" d="M133.413 151.973C133.413 152.117 133.54 152.245 133.683 152.245C133.826 152.245 133.953 152.117 133.953 151.973C133.953 151.83 133.826 151.702 133.683 151.702C133.54 151.702 133.413 151.814 133.413 151.973Z" fill="#E8E0CB"/>
<path id="Shape_42" fill-rule="evenodd" clip-rule="evenodd" d="M132.046 151.973C132.046 152.117 132.174 152.245 132.317 152.245C132.46 152.245 132.587 152.117 132.587 151.973C132.587 151.83 132.46 151.702 132.317 151.702C132.174 151.702 132.046 151.814 132.046 151.973Z" fill="#E8E0CB"/>
<path id="Shape_43" fill-rule="evenodd" clip-rule="evenodd" d="M132.046 156.241C132.046 156.385 132.174 156.513 132.317 156.513C132.46 156.513 132.587 156.385 132.587 156.241C132.587 156.097 132.46 155.969 132.317 155.969C132.174 155.969 132.046 156.081 132.046 156.241Z" fill="#E8E0CB"/>
<path id="Shape_44" fill-rule="evenodd" clip-rule="evenodd" d="M132.046 154.77C132.046 154.914 132.174 155.042 132.317 155.042C132.46 155.042 132.587 154.914 132.587 154.77C132.587 154.626 132.46 154.499 132.317 154.499C132.174 154.499 132.046 154.626 132.046 154.77Z" fill="#E8E0CB"/>
<path id="Shape_45" fill-rule="evenodd" clip-rule="evenodd" d="M132.046 153.364C132.046 153.508 132.174 153.636 132.317 153.636C132.46 153.636 132.587 153.508 132.587 153.364C132.587 153.22 132.46 153.092 132.317 153.092C132.174 153.092 132.046 153.204 132.046 153.364Z" fill="#E8E0CB"/>
<path id="Shape_46" fill-rule="evenodd" clip-rule="evenodd" d="M140.532 157.552C140.532 157.695 140.659 157.823 140.802 157.823C140.946 157.823 141.073 157.695 141.073 157.552C141.073 157.408 140.946 157.28 140.802 157.28C140.659 157.28 140.532 157.408 140.532 157.552Z" fill="#E8E0CB"/>
<path id="Oval_4" fill-rule="evenodd" clip-rule="evenodd" d="M142.137 152.229C141.988 152.229 141.867 152.107 141.867 151.957C141.867 151.807 141.988 151.686 142.137 151.686C142.287 151.686 142.407 151.807 142.407 151.957C142.407 152.107 142.287 152.229 142.137 152.229Z" fill="#E8E0CB"/>
<path id="Oval_5" fill-rule="evenodd" clip-rule="evenodd" d="M142.137 157.807C141.988 157.807 141.867 157.685 141.867 157.535C141.867 157.385 141.988 157.264 142.137 157.264C142.287 157.264 142.407 157.385 142.407 157.535C142.407 157.685 142.287 157.807 142.137 157.807Z" fill="#E8E0CB"/>
<path id="Shape_47" fill-rule="evenodd" clip-rule="evenodd" d="M139.102 157.552C139.102 157.695 139.229 157.823 139.372 157.823C139.515 157.823 139.642 157.695 139.642 157.552C139.642 157.408 139.515 157.28 139.372 157.28C139.229 157.28 139.102 157.408 139.102 157.552Z" fill="#E8E0CB"/>
<path id="Shape_48" fill-rule="evenodd" clip-rule="evenodd" d="M137.688 157.552C137.688 157.695 137.815 157.823 137.958 157.823C138.101 157.823 138.228 157.695 138.228 157.552C138.228 157.408 138.101 157.28 137.958 157.28C137.815 157.28 137.688 157.408 137.688 157.552Z" fill="#E8E0CB"/>
<path id="Shape_49" fill-rule="evenodd" clip-rule="evenodd" d="M136.258 157.552C136.258 157.695 136.385 157.823 136.528 157.823C136.671 157.823 136.798 157.695 136.798 157.552C136.798 157.408 136.671 157.28 136.528 157.28C136.385 157.28 136.258 157.408 136.258 157.552Z" fill="#E8E0CB"/>
<path id="Shape_50" fill-rule="evenodd" clip-rule="evenodd" d="M134.843 157.552C134.843 157.695 134.971 157.823 135.114 157.823C135.257 157.823 135.384 157.695 135.384 157.552C135.384 157.408 135.257 157.28 135.114 157.28C134.955 157.28 134.843 157.408 134.843 157.552Z" fill="#E8E0CB"/>
<path id="Shape_51" fill-rule="evenodd" clip-rule="evenodd" d="M133.413 157.552C133.413 157.695 133.54 157.823 133.683 157.823C133.826 157.823 133.953 157.695 133.953 157.552C133.953 157.408 133.826 157.28 133.683 157.28C133.54 157.28 133.413 157.408 133.413 157.552Z" fill="#E8E0CB"/>
<path id="Shape_52" fill-rule="evenodd" clip-rule="evenodd" d="M132.046 157.552C132.046 157.695 132.174 157.823 132.317 157.823C132.46 157.823 132.587 157.695 132.587 157.552C132.587 157.408 132.46 157.28 132.317 157.28C132.174 157.28 132.046 157.408 132.046 157.552Z" fill="#E8E0CB"/>
</g>
<g id="Group_25">
<path id="Shape_53" fill-rule="evenodd" clip-rule="evenodd" d="M127.359 164.632C127.359 164.776 127.232 164.904 127.088 164.904C126.945 164.904 126.818 164.776 126.818 164.632C126.818 164.488 126.945 164.36 127.088 164.36C127.247 164.36 127.359 164.488 127.359 164.632Z" fill="#E8E0CB"/>
<path id="Shape_54" fill-rule="evenodd" clip-rule="evenodd" d="M128.789 164.632C128.789 164.776 128.662 164.904 128.519 164.904C128.376 164.904 128.249 164.776 128.249 164.632C128.249 164.488 128.376 164.36 128.519 164.36C128.662 164.36 128.789 164.488 128.789 164.632Z" fill="#E8E0CB"/>
<path id="Shape_55" fill-rule="evenodd" clip-rule="evenodd" d="M130.219 164.632C130.219 164.776 130.092 164.904 129.949 164.904C129.806 164.904 129.679 164.776 129.679 164.632C129.679 164.488 129.806 164.36 129.949 164.36C130.092 164.36 130.219 164.488 130.219 164.632Z" fill="#E8E0CB"/>
<path id="Shape_56" fill-rule="evenodd" clip-rule="evenodd" d="M131.633 164.632C131.633 164.776 131.506 164.904 131.363 164.904C131.22 164.904 131.093 164.776 131.093 164.632C131.093 164.488 131.22 164.36 131.363 164.36C131.522 164.36 131.633 164.488 131.633 164.632Z" fill="#E8E0CB"/>
<path id="Shape_57" fill-rule="evenodd" clip-rule="evenodd" d="M133.064 164.632C133.064 164.776 132.936 164.904 132.793 164.904C132.65 164.904 132.523 164.776 132.523 164.632C132.523 164.488 132.65 164.36 132.793 164.36C132.936 164.36 133.064 164.488 133.064 164.632Z" fill="#E8E0CB"/>
<path id="Shape_58" fill-rule="evenodd" clip-rule="evenodd" d="M134.478 164.632C134.478 164.776 134.351 164.904 134.208 164.904C134.065 164.904 133.937 164.776 133.937 164.632C133.937 164.488 134.065 164.36 134.208 164.36C134.367 164.36 134.478 164.488 134.478 164.632Z" fill="#E8E0CB"/>
<path id="Shape_59" fill-rule="evenodd" clip-rule="evenodd" d="M135.844 164.632C135.844 164.776 135.717 164.904 135.574 164.904C135.431 164.904 135.304 164.776 135.304 164.632C135.304 164.488 135.431 164.36 135.574 164.36C135.733 164.36 135.844 164.488 135.844 164.632Z" fill="#E8E0CB"/>
<path id="Shape_60" fill-rule="evenodd" clip-rule="evenodd" d="M135.844 168.916C135.844 169.06 135.717 169.187 135.574 169.187C135.431 169.187 135.304 169.06 135.304 168.916C135.304 168.772 135.431 168.644 135.574 168.644C135.733 168.628 135.844 168.756 135.844 168.916Z" fill="#E8E0CB"/>
<path id="Shape_61" fill-rule="evenodd" clip-rule="evenodd" d="M135.844 167.445C135.844 167.589 135.717 167.717 135.574 167.717C135.431 167.717 135.304 167.589 135.304 167.445C135.304 167.301 135.431 167.173 135.574 167.173C135.733 167.173 135.844 167.285 135.844 167.445Z" fill="#E8E0CB"/>
<path id="Shape_62" fill-rule="evenodd" clip-rule="evenodd" d="M135.844 166.023C135.844 166.167 135.717 166.294 135.574 166.294C135.431 166.294 135.304 166.167 135.304 166.023C135.304 165.879 135.431 165.751 135.574 165.751C135.733 165.751 135.844 165.879 135.844 166.023Z" fill="#E8E0CB"/>
<path id="Shape_63" fill-rule="evenodd" clip-rule="evenodd" d="M127.359 170.226C127.359 170.37 127.232 170.498 127.088 170.498C126.945 170.498 126.818 170.37 126.818 170.226C126.818 170.082 126.945 169.955 127.088 169.955C127.247 169.955 127.359 170.066 127.359 170.226Z" fill="#E8E0CB"/>
<path id="Shape_64" fill-rule="evenodd" clip-rule="evenodd" d="M126.04 164.616C126.04 164.76 125.913 164.888 125.77 164.888C125.627 164.888 125.499 164.76 125.499 164.616C125.499 164.472 125.627 164.344 125.77 164.344C125.913 164.344 126.04 164.472 126.04 164.616Z" fill="#E8E0CB"/>
<path id="Shape_65" fill-rule="evenodd" clip-rule="evenodd" d="M126.04 170.21C126.04 170.354 125.913 170.482 125.77 170.482C125.627 170.482 125.499 170.354 125.499 170.21C125.499 170.066 125.627 169.938 125.77 169.938C125.913 169.938 126.04 170.066 126.04 170.21Z" fill="#E8E0CB"/>
<path id="Shape_66" fill-rule="evenodd" clip-rule="evenodd" d="M128.789 170.226C128.789 170.37 128.662 170.498 128.519 170.498C128.376 170.498 128.249 170.37 128.249 170.226C128.249 170.082 128.376 169.955 128.519 169.955C128.662 169.955 128.789 170.066 128.789 170.226Z" fill="#E8E0CB"/>
<path id="Oval_6" fill-rule="evenodd" clip-rule="evenodd" d="M129.933 170.498C129.784 170.498 129.663 170.376 129.663 170.226C129.663 170.076 129.784 169.955 129.933 169.955C130.082 169.955 130.203 170.076 130.203 170.226C130.203 170.376 130.082 170.498 129.933 170.498Z" fill="#E8E0CB"/>
<path id="Shape_67" fill-rule="evenodd" clip-rule="evenodd" d="M131.633 170.226C131.633 170.37 131.506 170.498 131.363 170.498C131.22 170.498 131.093 170.37 131.093 170.226C131.093 170.082 131.22 169.955 131.363 169.955C131.522 169.955 131.633 170.066 131.633 170.226Z" fill="#E8E0CB"/>
<path id="Shape_68" fill-rule="evenodd" clip-rule="evenodd" d="M133.064 170.226C133.064 170.37 132.936 170.498 132.793 170.498C132.65 170.498 132.523 170.37 132.523 170.226C132.523 170.082 132.65 169.955 132.793 169.955C132.936 169.955 133.064 170.066 133.064 170.226Z" fill="#E8E0CB"/>
<path id="Shape_69" fill-rule="evenodd" clip-rule="evenodd" d="M134.478 170.226C134.478 170.37 134.351 170.498 134.208 170.498C134.065 170.498 133.937 170.37 133.937 170.226C133.937 170.082 134.065 169.955 134.208 169.955C134.367 169.955 134.478 170.066 134.478 170.226Z" fill="#E8E0CB"/>
<path id="Shape_70" fill-rule="evenodd" clip-rule="evenodd" d="M135.844 170.226C135.844 170.37 135.717 170.498 135.574 170.498C135.431 170.498 135.304 170.37 135.304 170.226C135.304 170.082 135.431 169.955 135.574 169.955C135.733 169.955 135.844 170.066 135.844 170.226Z" fill="#E8E0CB"/>
</g>
<rect id="Rectangle-path_49" width="18.4336" height="1.11885" transform="matrix(-1 0 0 1 143.075 145.132)" fill="#F99D78"/>
<rect id="Rectangle-path_50" width="0.953461" height="8.47136" transform="matrix(-1 0 0 1 141.009 136.661)" fill="#F99D78"/>
<rect id="Rectangle-path_51" width="1.11238" height="8.47136" transform="matrix(-1 0 0 1 138.149 136.661)" fill="#F99D78"/>
<rect id="Rectangle-path_52" width="1.11237" height="8.47136" transform="matrix(-1 0 0 1 134.653 136.661)" fill="#F99D78"/>
<rect id="Rectangle-path_53" width="0.953461" height="8.47136" transform="matrix(-1 0 0 1 131.633 136.661)" fill="#F99D78"/>
<rect id="Rectangle-path_54" width="0.953461" height="8.47136" transform="matrix(-1 0 0 1 128.137 136.661)" fill="#F99D78"/>
</g>
<rect id="Rectangle 19" width="1" height="16.0914" transform="matrix(-1 0 0 1 130 120.686)" fill="#493E5E"/>
<path id="Shape_71" fill-rule="evenodd" clip-rule="evenodd" d="M127.057 119.278C127.057 120.639 128.157 121.764 129.528 121.764C130.881 121.764 132 120.657 132 119.278C132 117.899 130.899 116.792 129.528 116.792C128.175 116.792 127.057 117.899 127.057 119.278Z" fill="#F4815B"/>
<g id="Group 2">
<rect id="Rectangle-path Copy" width="2.93173" height="3.81813" transform="matrix(-1 0 0 1 150.458 144.486)" fill="#9EAFB2"/>
<rect id="Rectangle-path Copy 2" width="1.33484" height="3.79077" transform="matrix(-1 0 0 1 148.856 144.514)" fill="#7D9199"/>
<rect id="Rectangle-path_55" width="7.6277" height="28.1191" transform="matrix(-1 0 0 1 152.855 148.304)" fill="#4E687A"/>
<rect id="Rectangle-path_56" width="11.6534" height="2.36684" transform="matrix(-1 0 0 1 154.868 152.217)" fill="#284D66"/>
<rect id="Rectangle-path_57" width="11.6534" height="2.36681" transform="matrix(-1 0 0 1 154.868 160.286)" fill="#284D66"/>
<rect id="Rectangle-path_58" width="11.6534" height="2.36681" transform="matrix(-1 0 0 1 154.868 168.032)" fill="#284D66"/>
<rect id="Rectangle-path_59" width="7.6277" height="7.03503" transform="matrix(-1 0 0 1 152.855 137.479)" fill="#4E687A"/>
<rect id="Rectangle-path_60" x="150.458" y="137.484" width="2.93173" height="4.88425" transform="rotate(180 150.458 137.484)" fill="#9EAFB2"/>
<rect id="Rectangle-path_61" x="148.856" y="137.484" width="1.33484" height="4.88425" transform="rotate(180 148.856 137.484)" fill="#7D9199"/>
<path id="Mask_15" fill-rule="evenodd" clip-rule="evenodd" d="M158.936 124.676C158.936 130.055 154.561 134.595 149.169 134.595C143.776 134.595 139.401 130.055 139.401 124.676H158.936Z" fill="#4E687A"/>
<path id="Shape_72" fill-rule="evenodd" clip-rule="evenodd" d="M146.594 120.093C146.594 121.449 147.675 122.535 148.999 122.535C150.323 122.535 151.404 121.438 151.404 120.093C151.404 118.748 150.323 117.651 148.999 117.651C147.675 117.651 146.594 118.737 146.594 120.093Z" fill="#F99D78"/>
<path id="Shape_73" fill-rule="evenodd" clip-rule="evenodd" d="M147.611 114.552C147.611 115.338 148.236 115.973 149.01 115.973C149.783 115.973 150.408 115.338 150.408 114.552C150.408 113.767 149.783 113.132 149.01 113.132C148.236 113.132 147.611 113.767 147.611 114.552Z" fill="#F4815B"/>
<path id="Shape_74" fill-rule="evenodd" clip-rule="evenodd" d="M148.067 110.583C148.067 111.11 148.491 111.54 149.01 111.54C149.529 111.54 149.953 111.11 149.953 110.583C149.953 110.056 149.529 109.625 149.01 109.625C148.491 109.636 148.067 110.056 148.067 110.583Z" fill="#F99D78"/>
<path id="Oval_7" fill-rule="evenodd" clip-rule="evenodd" d="M149.01 108.012C148.688 108.012 148.427 107.747 148.427 107.42C148.427 107.093 148.688 106.828 149.01 106.828C149.332 106.828 149.593 107.093 149.593 107.42C149.593 107.747 149.332 108.012 149.01 108.012Z" fill="#F4815B"/>
</g>
</g>
</g>
</svg>
