<svg width="685" height="362" viewBox="0 0 685 362" fill="none" xmlns="http://www.w3.org/2000/svg">
<path d="M685 206.063C685 216.784 679.164 223.972 668.936 232.311C658.704 240.393 644.071 249.622 626.501 258.423C607.144 268.04 584.193 275.131 559.596 277.322C533.323 279.637 508.927 278.379 488.753 273.81C472.272 269.977 454.468 263.507 440.787 251.224C427.144 239.443 417.583 221.852 417.583 207.347C417.583 195.038 422.134 186.608 430.039 178.245C437.944 170.067 449.204 161.965 462.622 154.733C489.481 139.68 524.991 130.277 559.614 134.8C594.242 139.092 625.591 146.153 648.284 157.924C659.633 163.899 668.814 171.355 675.148 180.028C681.51 188.575 685 198.339 685 206.063Z" fill="url(#paint0_linear)"/>
<g opacity="0.8">
<path d="M59.0857 166.273L134.768 167.396C134.937 167.406 135.068 167.545 135.068 167.714C135.068 167.879 134.934 168.013 134.768 168.013L59.0857 169.145C58.3354 169.098 57.7473 168.483 57.7351 167.731C57.7228 166.98 58.2905 166.345 59.0389 166.273H59.0857" fill="#BC4E35"/>
<path d="M57.5977 167.705V167.752C57.6074 168.133 57.769 168.495 58.0466 168.756C58.3242 169.018 58.6948 169.158 59.0761 169.146C58.2838 169.156 57.6317 168.525 57.6164 167.733C57.6163 166.95 58.246 166.312 59.0293 166.302C58.2554 166.327 57.6397 166.959 57.6351 167.733" fill="#FDE7DD"/>
<path d="M57.6256 167.705C57.641 168.497 58.2931 169.128 59.0854 169.117L93.5206 168.013C93.6839 168.008 93.8151 167.877 93.82 167.714C93.8154 167.549 93.6854 167.415 93.5206 167.405L59.0667 166.283H59.0199C58.2365 166.293 57.6069 166.931 57.6069 167.714" fill="#C95F3A"/>
<path d="M58.1498 163.561L59.6002 166.18L62.2296 167.602L59.6096 169.042L58.1872 171.681L56.7368 169.061L54.1074 167.639L56.7275 166.189L58.1498 163.561Z" fill="#F48657"/>
</g>
<g opacity="0.4">
<path d="M349.057 301.097L492.037 303.23C492.193 303.227 492.343 303.289 492.451 303.401C492.559 303.513 492.616 303.664 492.608 303.819C492.603 304.132 492.35 304.385 492.037 304.39L349.057 306.523C347.558 306.544 346.326 305.346 346.305 303.847C346.285 302.349 347.483 301.118 348.982 301.097H349.057Z" fill="#433554"/>
<path d="M346.259 303.81V303.894C346.281 304.616 346.589 305.299 347.116 305.792C347.643 306.285 348.345 306.548 349.066 306.523C348.346 306.533 347.652 306.257 347.136 305.755C346.62 305.253 346.325 304.567 346.315 303.848C346.315 302.364 347.507 301.155 348.991 301.135H348.888C347.426 301.185 346.267 302.385 346.268 303.848" fill="#E0DBE5"/>
<path d="M346.305 303.81C346.315 304.529 346.611 305.216 347.127 305.717C347.643 306.219 348.337 306.495 349.057 306.485L414.118 304.39C414.424 304.38 414.67 304.135 414.68 303.829C414.682 303.677 414.625 303.531 414.519 303.422C414.414 303.314 414.27 303.251 414.118 303.249L349.019 301.116H348.944C347.46 301.136 346.268 302.345 346.268 303.829" fill="#564076"/>
<path d="M347.288 295.971L350.03 300.919L354.998 303.604L350.048 306.336L347.363 311.313L344.63 306.364L339.652 303.679L344.602 300.947L347.288 295.971Z" fill="#87759B"/>
</g>
<g opacity="0.8">
<path d="M478.593 37.0918H346.242C146.967 38.626 82.8787 207.453 82.8787 207.453L503.671 207.715V62.1534C503.671 55.505 501.028 49.1291 496.325 44.4289C491.622 39.7286 485.243 37.0893 478.593 37.0918Z" fill="#3B4E56"/>
<mask id="mask0" mask-type="alpha" maskUnits="userSpaceOnUse" x="82" y="37" width="422" height="171">
<path d="M478.593 37.0918H346.242C146.967 38.626 82.8787 207.453 82.8787 207.453L503.671 207.715V62.1534C503.671 55.505 501.028 49.1291 496.325 44.4289C491.622 39.7286 485.243 37.0893 478.593 37.0918Z" fill="white"/>
</mask>
<g mask="url(#mask0)">
<path d="M504.101 -81.4619L515.19 -67.0929L-109.837 415.112L-120.935 400.743L504.101 -81.4619Z" fill="url(#paint1_linear)"/>
</g>
</g>
<path d="M301.87 258.446C369.907 268.736 406.055 312.433 424.451 334.922C442.848 357.411 473.353 355.503 473.353 355.503H488.231L517.323 244.264H216.119C233.832 247.52 301.87 258.446 301.87 258.446Z" fill="#A7B2BA"/>
<path d="M493.041 267.23H172.878C173.346 269.101 175.592 272.479 184.612 276.286C198.47 282.151 214.434 287.194 227.375 288.017C286.018 291.759 493.041 288.017 493.041 288.017V267.23Z" fill="#254D66"/>
<path d="M493.041 244.797C493.041 244.797 286.046 242.721 227.375 246.453C214.434 247.276 198.47 252.319 184.612 258.175C175.592 261.991 173.383 265.35 172.878 267.24H493.041V244.797Z" fill="#194460"/>
<path d="M367.699 267.23H362.243V289.467H367.699V267.23Z" fill="#F69C79"/>
<path d="M367.699 244.975H362.243V267.221H367.699V244.975Z" fill="#E9806E"/>
<path d="M304.518 267.23H299.062V289.682H304.518V267.23Z" fill="#F69C79"/>
<path d="M304.518 244.77H299.062V267.221H304.518V244.77Z" fill="#E9806E"/>
<path d="M239.259 267.23H233.982L233.897 288.541C235.713 288.7 237.5 288.765 239.259 288.775V267.23Z" fill="#F69C79"/>
<path d="M239.259 245.695L233.954 245.751V267.268H239.259V245.695Z" fill="#E9806E"/>
<path d="M561.462 224.048V239.418C561.465 241.749 560.54 243.985 558.891 245.632C557.243 247.28 555.007 248.205 552.676 248.203V215.264C555.007 215.262 557.243 216.186 558.891 217.834C560.54 219.482 561.465 221.718 561.462 224.048Z" fill="#F4815B"/>
<path d="M561.397 176.254V191.624C561.399 193.955 560.474 196.191 558.826 197.839C557.178 199.486 554.941 200.411 552.61 200.409V167.47C557.463 167.47 561.397 171.403 561.397 176.254Z" fill="#F4815B"/>
<path d="M530.274 256.538V303.396C530.274 306.79 527.522 309.542 524.126 309.542H516.135V256.538H530.274Z" fill="#7D9098"/>
<path d="M505.009 247.117C513.143 247.117 519.738 253.71 519.738 261.842V317.232C519.722 325.353 513.133 331.928 505.009 331.928C501.101 331.938 497.35 330.395 494.58 327.639C491.811 324.882 490.251 321.139 490.243 317.232V261.842C490.243 257.93 491.8 254.179 494.57 251.417C497.341 248.654 501.096 247.107 505.009 247.117Z" fill="#194460"/>
<path d="M530.274 110.742V157.591H516.163V104.587H524.154C527.54 104.607 530.274 107.357 530.274 110.742Z" fill="#7D9098"/>
<path d="M505.009 95.167C513.143 95.167 519.738 101.759 519.738 109.892V165.253C519.738 173.386 513.143 179.978 505.009 179.978C501.103 179.978 497.357 178.427 494.594 175.665C491.832 172.904 490.281 169.159 490.281 165.253V109.892C490.281 101.759 496.875 95.167 505.009 95.167Z" fill="#194460"/>
<path d="M110.941 227.023L114.057 228.043C178.315 248.624 246.352 246.042 246.352 246.042H522.292V207.481H110.941V227.023Z" fill="#CED5E0"/>
<path d="M110.567 188.606L107.32 189.728V207.781H519.251V169.534H243.053C243.053 169.534 174.896 166.817 110.567 188.606Z" fill="#E2E5EA"/>
<rect x="538.958" y="164.795" width="14.1764" height="90.0777" fill="#4E697A"/>
<path d="M114.058 207.292L82.8694 207.481C82.8694 213.272 84.0952 218.454 114.058 228.062V207.292Z" fill="#254D66"/>
<path d="M114.067 207.78H82.8786C82.7289 202.626 84.1044 196.798 114.067 187.2V207.78Z" fill="#2C5870"/>
<path d="M204.777 207.472H200.042V244.395C201.652 244.536 203.224 244.657 204.777 244.779V207.472Z" fill="#C0CED7"/>
<path d="M204.777 170.146C203.224 170.267 201.652 170.389 200.042 170.529V207.443H204.777V170.146Z" fill="#C0CED7"/>
<rect x="264.309" y="207.481" width="5.67058" height="38.5606" fill="#C0CED7"/>
<rect x="328.884" y="207.481" width="5.67058" height="38.5606" fill="#C0CED7"/>
<rect x="393.459" y="207.481" width="5.67058" height="38.5606" fill="#C0CED7"/>
<rect x="200.146" y="207.706" width="322.727" height="3.53613" fill="#C0CED7"/>
<rect x="200.146" y="204.179" width="322.802" height="3.53613" fill="#C0CED7"/>
<path d="M470.452 207.649C470.452 207.649 469.292 156.198 494.08 156.198H544.16V259.101H493.949C466.952 259.101 470.321 207.649 470.321 207.649" fill="#2C5870"/>
<path opacity="0.24632" fill-rule="evenodd" clip-rule="evenodd" d="M498.945 222.439L533.886 222.093L534.157 248.848L499.217 249.194L498.945 222.439ZM525.52 247.539L525.286 223.805L521.263 223.814L521.497 247.539H525.52ZM500.33 224.058L518.259 223.88L518.493 247.604L500.564 247.791L500.33 224.058ZM528.168 223.777L528.402 247.511L532.426 247.501L532.183 223.777H528.168Z" fill="#7D9098"/>
<path opacity="0.24632" d="M510.226 234.222C512.025 234.204 513.468 232.732 513.45 230.934C513.432 229.136 511.96 227.693 510.161 227.711C508.363 227.729 506.92 229.201 506.938 230.999C506.956 232.797 508.428 234.24 510.226 234.222Z" fill="#7D9098"/>
<path d="M626.15 176.021L668.417 206.555C668.564 206.656 668.664 206.814 668.692 206.991C668.72 207.167 668.675 207.348 668.567 207.49C668.522 207.545 668.472 207.595 668.417 207.64L626.084 238.071C610.227 249.47 588.325 247.087 575.291 232.546C562.256 218.005 562.279 195.98 575.345 181.467C588.41 166.953 610.316 164.617 626.15 176.049V176.021Z" fill="#E76464"/>
<path d="M607.005 186.741L634.637 206.695C634.83 206.832 634.876 207.1 634.74 207.294C634.713 207.332 634.678 207.364 634.637 207.387L607.005 227.294C596.643 234.762 582.317 233.221 573.782 223.72C565.247 214.22 565.247 199.815 573.782 190.315C582.317 180.815 596.643 179.274 607.005 186.741Z" fill="#F99D78"/>
<path d="M591.565 195.619L607.108 206.845C607.159 206.88 607.193 206.935 607.204 206.997C607.214 207.058 607.2 207.121 607.164 207.172C607.15 207.195 607.131 207.215 607.108 207.228L591.537 218.454C585.716 222.622 577.691 221.742 572.912 216.412C568.133 211.082 568.133 203.01 572.912 197.68C577.691 192.35 585.716 191.47 591.537 195.638L591.565 195.619Z" fill="#FFF0BA"/>
<rect x="391.42" y="177.62" width="67.3357" height="12.9284" rx="5.57548" fill="#194460"/>
<rect x="307.83" y="177.62" width="67.3357" height="12.9284" rx="5.57548" fill="#194460"/>
<rect x="224.241" y="177.62" width="67.3357" height="12.9284" rx="5.57548" fill="#194460"/>
<path d="M258.975 172.073L257.038 159.565C256.103 159.696 234.356 162.55 219.609 138.985C217.718 136.101 213.868 135.259 210.945 137.09C208.023 138.921 207.103 142.753 208.876 145.711C218.926 161.708 231.867 168.05 240.962 170.539C246.805 172.242 252.929 172.763 258.975 172.073Z" fill="#EDE7E1"/>
<mask id="mask1" mask-type="alpha" maskUnits="userSpaceOnUse" x="224" y="149" width="68" height="42">
<rect x="224.241" y="149.78" width="67.3357" height="41.0991" rx="5.57548" fill="white"/>
</mask>
<g mask="url(#mask1)">
<path d="M255.916 151.726C264.567 151.728 271.936 158.012 273.302 166.553L276.333 185.553C277.093 190.169 275.781 194.886 272.747 198.447C269.713 202.008 265.264 204.054 260.585 204.038H244.359C239.689 204.049 235.25 202.008 232.22 198.455C229.189 194.903 227.873 190.199 228.62 185.591L231.652 166.591C233.017 158.05 240.386 151.765 249.038 151.763L255.916 151.726Z" fill="#EDE7E1"/>
</g>
<rect x="258.638" y="165.394" width="6.75603" height="6.75419" rx="1.51548" fill="#F06B38"/>
<g style="mix-blend-mode:multiply" opacity="0.3">
<path d="M266.087 154.851L261.287 159.64C262.157 159.958 275.678 169.996 273.685 191.512C273.592 192.56 275.407 196.713 278.888 196.48C282.369 196.246 286.018 194.291 285.784 190.801C284.53 171.951 279.159 167.264 272.282 160.866C267.229 156.085 266.864 155.122 266.087 154.851Z" fill="#CCC8C3"/>
</g>
<path d="M267.023 154.617L256.505 160.145C257.384 160.435 275.79 165.234 274.855 188.612C274.714 192.102 278.317 194.627 281.798 194.272C285.263 193.889 287.781 190.801 287.459 187.331C286.187 172.288 280.965 164.159 267.023 154.617Z" fill="#EDE7E1"/>
<g style="mix-blend-mode:multiply" opacity="0.3">
<path d="M252.594 162.409C264.501 162.409 274.153 152.11 274.153 139.406C274.153 126.701 264.501 116.402 252.594 116.402C240.687 116.402 231.034 126.701 231.034 139.406C231.034 152.11 240.687 162.409 252.594 162.409Z" fill="#CCC8C3"/>
</g>
<g style="mix-blend-mode:soft-light" opacity="0.4">
<path d="M213.765 139.427C214.871 138.843 215.491 137.847 215.151 137.203C214.811 136.559 213.639 136.51 212.533 137.094C211.427 137.678 210.806 138.674 211.146 139.318C211.486 139.962 212.659 140.011 213.765 139.427Z" fill="white"/>
</g>
<rect x="252.162" y="119.327" width="8.86144" height="2.11419" transform="rotate(-88.13 252.162 119.327)" fill="#726B65"/>
<path d="M231.24 145.664L228.189 144.943C227.134 144.699 226.345 143.82 226.215 142.745L225.888 140.042C225.761 138.966 226.322 137.926 227.291 137.441L230.098 136.028L231.24 145.664Z" fill="#726B65"/>
<path d="M273.432 147.039L276.52 146.524C277.591 146.35 278.436 145.523 278.635 144.457L279.131 141.772C279.328 140.709 278.838 139.636 277.905 139.087L275.21 137.497L273.432 147.039Z" fill="#726B65"/>
<path d="M252.594 161.343C265.302 161.343 275.603 151.044 275.603 138.339C275.603 125.634 265.302 115.335 252.594 115.335C239.886 115.335 229.584 125.634 229.584 138.339C229.584 151.044 239.886 161.343 252.594 161.343Z" fill="#EDE7E1"/>
<path d="M253.586 111.341C255.451 111.341 256.964 109.829 256.964 107.964C256.964 106.099 255.451 104.587 253.586 104.587C251.72 104.587 250.208 106.099 250.208 107.964C250.208 109.829 251.72 111.341 253.586 111.341Z" fill="#F06B38"/>
<g style="mix-blend-mode:soft-light" opacity="0.4">
<path d="M253.698 106.308C254.214 106.308 254.633 106.053 254.633 105.738C254.633 105.422 254.214 105.167 253.698 105.167C253.181 105.167 252.762 105.422 252.762 105.738C252.762 106.053 253.181 106.308 253.698 106.308Z" fill="white"/>
</g>
<path d="M253.651 109.984C252.22 109.94 250.915 109.153 250.208 107.908C250.2 109.656 251.529 111.121 253.271 111.284C255.012 111.447 256.59 110.254 256.907 108.534C256.104 109.495 254.902 110.03 253.651 109.984Z" fill="#DF5B35"/>
<path d="M271.29 141.473C271.037 149.05 262.363 157.021 251.995 156.684C241.627 156.347 233.495 147.825 233.738 140.257C233.982 132.689 234.609 126.561 252.959 127.16C270.466 127.731 271.533 133.877 271.29 141.473Z" fill="#B2CAD4"/>
<mask id="mask2" mask-type="alpha" maskUnits="userSpaceOnUse" x="233" y="127" width="39" height="30">
<path d="M271.29 141.473C271.037 149.05 262.363 157.021 251.995 156.684C241.627 156.347 233.495 147.825 233.738 140.257C233.982 132.689 234.609 126.561 252.959 127.16C270.466 127.731 271.533 133.877 271.29 141.473Z" fill="white"/>
</mask>
<g mask="url(#mask2)">
<g style="mix-blend-mode:screen" opacity="0.34">
<path d="M243.002 132.324C244.144 131.22 242.581 129.274 241.131 129.892C236.752 131.763 235.741 135.86 235.591 140.416C235.618 143.396 236.695 146.271 238.632 148.536C238.762 148.691 238.981 148.738 239.163 148.649C239.344 148.56 239.442 148.359 239.4 148.162C237.959 142.558 237.893 137.263 243.002 132.324Z" fill="#F0F4F8"/>
</g>
<path d="M270.036 131.529C270.036 131.529 270.139 159.762 237.669 152.418L227.188 166.684L288.245 156.834L270.036 131.529Z" fill="#A2BAC8"/>
</g>
<path d="M343.192 172.073L341.255 159.565C340.319 159.696 318.573 162.55 303.825 138.985C301.935 136.101 298.084 135.259 295.162 137.09C292.24 138.921 291.32 142.753 293.092 145.711C303.142 161.708 316.083 168.05 325.179 170.539C331.022 172.242 337.145 172.763 343.192 172.073Z" fill="#EDE7E1"/>
<mask id="mask3" mask-type="alpha" maskUnits="userSpaceOnUse" x="308" y="149" width="68" height="42">
<rect x="308.457" y="149.78" width="67.3357" height="41.0991" rx="5.57548" fill="white"/>
</mask>
<g mask="url(#mask3)">
<path d="M340.132 151.726C348.784 151.728 356.153 158.012 357.518 166.553L360.55 185.553C361.309 190.169 359.998 194.886 356.964 198.447C353.929 202.008 349.481 204.054 344.801 204.038H328.576C323.905 204.049 319.467 202.008 316.436 198.455C313.405 194.903 312.089 190.199 312.836 185.591L315.868 166.591C317.234 158.05 324.602 151.765 333.254 151.763L340.132 151.726Z" fill="#EDE7E1"/>
</g>
<rect x="342.855" y="165.394" width="6.75603" height="6.75419" rx="1.51548" fill="#F06B38"/>
<g style="mix-blend-mode:multiply" opacity="0.3">
<path d="M350.304 154.851L345.503 159.64C346.373 159.958 359.895 169.996 357.902 191.512C357.808 192.56 359.623 196.713 363.104 196.48C366.585 196.246 370.235 194.291 370.001 190.801C368.747 171.951 363.376 167.264 356.498 160.866C351.445 156.085 351.08 155.122 350.304 154.851Z" fill="#CCC8C3"/>
</g>
<path d="M351.239 154.617L340.721 160.145C341.601 160.435 360.007 165.234 359.071 188.612C358.931 192.102 362.533 194.627 366.014 194.272C369.479 193.889 371.998 190.801 371.676 187.331C370.403 172.288 365.182 164.159 351.239 154.617Z" fill="#EDE7E1"/>
<g style="mix-blend-mode:multiply" opacity="0.3">
<path d="M336.81 162.409C348.717 162.409 358.37 152.11 358.37 139.406C358.37 126.701 348.717 116.402 336.81 116.402C324.903 116.402 315.251 126.701 315.251 139.406C315.251 152.11 324.903 162.409 336.81 162.409Z" fill="#CCC8C3"/>
</g>
<g style="mix-blend-mode:soft-light" opacity="0.4">
<path d="M297.981 139.427C299.087 138.843 299.708 137.847 299.368 137.203C299.027 136.559 297.855 136.51 296.749 137.094C295.643 137.678 295.023 138.674 295.363 139.318C295.703 139.962 296.875 140.011 297.981 139.427Z" fill="white"/>
</g>
<rect x="336.379" y="119.327" width="8.86144" height="2.11419" transform="rotate(-88.13 336.379 119.327)" fill="#726B65"/>
<path d="M315.457 145.664L312.406 144.943C311.351 144.699 310.561 143.82 310.432 142.745L310.104 140.042C309.978 138.966 310.539 137.926 311.508 137.441L314.315 136.028L315.457 145.664Z" fill="#726B65"/>
<path d="M357.649 147.039L360.737 146.524C361.807 146.35 362.653 145.523 362.852 144.457L363.348 141.772C363.544 140.709 363.054 139.636 362.122 139.087L359.427 137.497L357.649 147.039Z" fill="#726B65"/>
<path d="M336.81 161.343C349.518 161.343 359.82 151.044 359.82 138.339C359.82 125.634 349.518 115.335 336.81 115.335C324.102 115.335 313.8 125.634 313.8 138.339C313.8 151.044 324.102 161.343 336.81 161.343Z" fill="#EDE7E1"/>
<path d="M337.802 111.341C339.667 111.341 341.18 109.829 341.18 107.964C341.18 106.099 339.667 104.587 337.802 104.587C335.936 104.587 334.424 106.099 334.424 107.964C334.424 109.829 335.936 111.341 337.802 111.341Z" fill="#F06B38"/>
<g style="mix-blend-mode:soft-light" opacity="0.4">
<path d="M337.914 106.308C338.431 106.308 338.85 106.053 338.85 105.738C338.85 105.422 338.431 105.167 337.914 105.167C337.397 105.167 336.979 105.422 336.979 105.738C336.979 106.053 337.397 106.308 337.914 106.308Z" fill="white"/>
</g>
<path d="M337.867 109.984C336.436 109.94 335.131 109.153 334.424 107.908C334.417 109.656 335.746 111.121 337.487 111.284C339.228 111.447 340.806 110.254 341.124 108.534C340.321 109.495 339.119 110.03 337.867 109.984Z" fill="#DF5B35"/>
<path d="M355.506 141.473C355.254 149.05 346.579 157.021 336.211 156.684C325.843 156.347 317.712 147.825 317.955 140.257C318.198 132.689 318.825 126.561 337.175 127.16C354.683 127.731 355.75 133.877 355.506 141.473Z" fill="#B2CAD4"/>
<mask id="mask4" mask-type="alpha" maskUnits="userSpaceOnUse" x="317" y="127" width="39" height="30">
<path d="M355.506 141.473C355.254 149.05 346.579 157.021 336.211 156.684C325.843 156.347 317.712 147.825 317.955 140.257C318.198 132.689 318.825 126.561 337.175 127.16C354.683 127.731 355.75 133.877 355.506 141.473Z" fill="white"/>
</mask>
<g mask="url(#mask4)">
<g style="mix-blend-mode:screen" opacity="0.34">
<path d="M327.219 132.324C328.36 131.22 326.798 129.274 325.347 129.892C320.968 131.763 319.957 135.86 319.808 140.416C319.834 143.396 320.911 146.271 322.849 148.536C322.979 148.691 323.197 148.738 323.379 148.649C323.56 148.56 323.658 148.359 323.616 148.162C322.175 142.558 322.11 137.263 327.219 132.324Z" fill="#F0F4F8"/>
</g>
<path d="M354.252 131.529C354.252 131.529 354.355 159.762 321.885 152.418L311.405 166.684L372.462 156.834L354.252 131.529Z" fill="#A2BAC8"/>
</g>
<path d="M427.006 172.073L425.069 159.565C424.133 159.696 402.387 162.55 387.639 138.985C385.749 136.101 381.898 135.259 378.976 137.09C376.054 138.921 375.134 142.753 376.906 145.711C386.956 161.708 399.897 168.05 408.993 170.539C414.835 172.242 420.959 172.763 427.006 172.073Z" fill="#EDE7E1"/>
<mask id="mask5" mask-type="alpha" maskUnits="userSpaceOnUse" x="392" y="149" width="68" height="42">
<rect x="392.271" y="149.78" width="67.3357" height="41.0991" rx="5.57548" fill="white"/>
</mask>
<g mask="url(#mask5)">
<path d="M423.946 151.726C432.598 151.728 439.967 158.012 441.332 166.553L444.364 185.553C445.123 190.169 443.812 194.886 440.777 198.447C437.743 202.008 433.295 204.054 428.615 204.038H412.389C407.719 204.049 403.281 202.008 400.25 198.455C397.219 194.903 395.903 190.199 396.65 185.591L399.682 166.591C401.048 158.05 408.416 151.765 417.068 151.763L423.946 151.726Z" fill="#EDE7E1"/>
</g>
<rect x="426.669" y="165.394" width="6.75603" height="6.75419" rx="1.51548" fill="#F06B38"/>
<g style="mix-blend-mode:multiply" opacity="0.3">
<path d="M434.117 154.851L429.317 159.64C430.187 159.958 443.709 169.996 441.716 191.512C441.622 192.56 443.437 196.713 446.918 196.48C450.399 196.246 454.049 194.291 453.815 190.801C452.561 171.951 447.19 167.264 440.312 160.866C435.259 156.085 434.894 155.122 434.117 154.851Z" fill="#CCC8C3"/>
</g>
<path d="M435.053 154.617L424.536 160.145C425.415 160.435 443.821 165.234 442.885 188.612C442.745 192.102 446.348 194.627 449.829 194.272C453.293 193.889 455.812 190.801 455.49 187.331C454.217 172.288 448.996 164.159 435.053 154.617Z" fill="#EDE7E1"/>
<g style="mix-blend-mode:multiply" opacity="0.3">
<path d="M420.624 162.409C432.531 162.409 442.184 152.11 442.184 139.406C442.184 126.701 432.531 116.402 420.624 116.402C408.717 116.402 399.065 126.701 399.065 139.406C399.065 152.11 408.717 162.409 420.624 162.409Z" fill="#CCC8C3"/>
</g>
<g style="mix-blend-mode:soft-light" opacity="0.4">
<path d="M381.795 139.427C382.901 138.843 383.522 137.847 383.182 137.203C382.841 136.559 381.669 136.51 380.563 137.094C379.457 137.678 378.837 138.674 379.177 139.318C379.517 139.962 380.689 140.011 381.795 139.427Z" fill="white"/>
</g>
<rect x="420.193" y="119.327" width="8.86144" height="2.11419" transform="rotate(-88.13 420.193 119.327)" fill="#726B65"/>
<path d="M399.27 145.664L396.22 144.943C395.165 144.699 394.375 143.82 394.246 142.745L393.918 140.042C393.792 138.966 394.353 137.926 395.322 137.441L398.129 136.028L399.27 145.664Z" fill="#726B65"/>
<path d="M441.463 147.039L444.551 146.524C445.621 146.35 446.467 145.523 446.666 144.457L447.162 141.772C447.358 140.709 446.868 139.636 445.936 139.087L443.241 137.497L441.463 147.039Z" fill="#726B65"/>
<path d="M420.624 161.343C433.332 161.343 443.634 151.044 443.634 138.339C443.634 125.634 433.332 115.335 420.624 115.335C407.916 115.335 397.614 125.634 397.614 138.339C397.614 151.044 407.916 161.343 420.624 161.343Z" fill="#EDE7E1"/>
<path d="M421.616 111.341C423.482 111.341 424.994 109.829 424.994 107.964C424.994 106.099 423.482 104.587 421.616 104.587C419.75 104.587 418.238 106.099 418.238 107.964C418.238 109.829 419.75 111.341 421.616 111.341Z" fill="#F06B38"/>
<g style="mix-blend-mode:soft-light" opacity="0.4">
<path d="M421.728 106.308C422.245 106.308 422.664 106.053 422.664 105.738C422.664 105.422 422.245 105.167 421.728 105.167C421.211 105.167 420.792 105.422 420.792 105.738C420.792 106.053 421.211 106.308 421.728 106.308Z" fill="white"/>
</g>
<path d="M421.682 109.984C420.25 109.94 418.945 109.153 418.238 107.908C418.231 109.656 419.56 111.121 421.301 111.284C423.043 111.447 424.62 110.254 424.938 108.534C424.135 109.495 422.933 110.03 421.682 109.984Z" fill="#DF5B35"/>
<path d="M439.32 141.473C439.068 149.05 430.393 157.021 420.025 156.684C409.657 156.347 401.526 147.825 401.769 140.257C402.012 132.689 402.639 126.561 420.989 127.16C438.497 127.731 439.563 133.877 439.32 141.473Z" fill="#B2CAD4"/>
<mask id="mask6" mask-type="alpha" maskUnits="userSpaceOnUse" x="401" y="127" width="39" height="30">
<path d="M439.32 141.473C439.068 149.05 430.393 157.021 420.025 156.684C409.657 156.347 401.526 147.825 401.769 140.257C402.012 132.689 402.639 126.561 420.989 127.16C438.497 127.731 439.563 133.877 439.32 141.473Z" fill="white"/>
</mask>
<g mask="url(#mask6)">
<g style="mix-blend-mode:screen" opacity="0.34">
<path d="M411.033 132.324C412.174 131.22 410.612 129.274 409.161 129.892C404.782 131.763 403.772 135.86 403.622 140.416C403.648 143.396 404.725 146.271 406.663 148.536C406.793 148.691 407.011 148.738 407.193 148.649C407.375 148.56 407.473 148.359 407.43 148.162C405.989 142.558 405.924 137.263 411.033 132.324Z" fill="#F0F4F8"/>
</g>
<path d="M438.066 131.529C438.066 131.529 438.169 159.762 405.699 152.418L395.219 166.684L456.276 156.834L438.066 131.529Z" fill="#A2BAC8"/>
</g>
<path d="M172.504 208.145L172.784 231.972C172.794 232.762 172.489 233.524 171.936 234.09C171.383 234.655 170.628 234.977 169.837 234.984H169.472C161.019 234.042 155.333 233.004 152.413 231.869C146.303 229.717 139.444 224.114 139.032 208.557C139.032 192.99 145.798 187.228 151.861 184.926C154.756 183.716 160.414 182.544 168.835 181.409H169.2C170.845 181.388 172.197 182.702 172.223 184.346L172.504 208.145Z" fill="#B2CAD4"/>
<g style="mix-blend-mode:screen" opacity="0.34">
<path d="M150.439 224.825C153.134 224.825 152.872 224.104 152.666 207.696C152.46 191.288 153.031 190.586 150.018 190.623C147.314 190.623 142.981 198.369 143.093 207.808C143.206 217.247 147.735 224.853 150.439 224.825Z" fill="#F0F4F8"/>
</g>
<g opacity="0.8">
<path d="M195.982 338.167L350.612 340.478C350.779 340.478 350.939 340.545 351.056 340.665C351.172 340.785 351.235 340.947 351.23 341.114C351.22 341.451 350.949 341.721 350.612 341.731L196 344.032C194.441 343.97 193.203 342.699 193.18 341.14C193.158 339.58 194.359 338.274 195.916 338.167H196" fill="#BC4E35"/>
<path d="M192.959 341.104V341.198C193.02 342.807 194.372 344.062 195.981 344.004C195.203 344.017 194.452 343.719 193.893 343.177C193.335 342.634 193.016 341.892 193.006 341.114C193.006 339.509 194.293 338.202 195.897 338.176H195.794C194.221 338.242 192.981 339.539 192.987 341.114" fill="#FDE7DD"/>
<path d="M193.006 341.104C193.016 341.882 193.335 342.625 193.893 343.167C194.452 343.71 195.203 344.007 195.982 343.995L266.396 341.731C266.728 341.721 266.994 341.455 267.004 341.123C267.004 340.784 266.735 340.506 266.396 340.496L196 338.186H195.916C194.312 338.211 193.024 339.519 193.025 341.123" fill="#C95F3A"/>
<path d="M194.073 332.629L197.029 337.98L202.41 340.88L197.058 343.836L194.157 349.215L191.2 343.864L185.819 340.964L191.162 338.008L194.073 332.629Z" fill="#F48657"/>
</g>
<g opacity="0.5">
<path d="M264.206 17.4077L331.158 18.4087C331.23 18.4111 331.298 18.4421 331.347 18.4947C331.396 18.5474 331.422 18.6174 331.42 18.6893C331.415 18.8319 331.3 18.9464 331.158 18.9513L264.206 19.9522C263.503 19.9522 262.933 19.3826 262.933 18.68C262.933 17.9773 263.503 17.4077 264.206 17.4077" fill="#BC4E35"/>
<path d="M262.896 18.6797C262.921 19.3788 263.506 19.9262 264.206 19.9052C263.869 19.9102 263.544 19.7806 263.303 19.5453C263.063 19.3099 262.926 18.9882 262.924 18.6517C262.923 17.9598 263.476 17.3947 264.168 17.3794H264.121C263.437 17.4046 262.895 17.9669 262.896 18.6517" fill="#FDE7DD"/>
<path d="M262.924 18.6801C262.926 19.0166 263.063 19.3383 263.303 19.5737C263.544 19.809 263.869 19.9386 264.206 19.9336L294.692 18.9326C294.835 18.9278 294.949 18.8133 294.954 18.6707C294.949 18.5263 294.836 18.409 294.692 18.3994L264.206 17.3984C263.514 17.4137 262.961 17.9789 262.961 18.6707" fill="#C95F3A"/>
<path d="M263.382 15.0127L264.664 17.3327L266.994 18.5862L264.673 19.8679L263.42 22.1972L262.138 19.8772L259.808 18.6237L262.119 17.3421L263.382 15.0127Z" fill="#F48657"/>
</g>
<path d="M70.1161 160.867L108.481 161.438C108.569 161.438 108.64 161.509 108.64 161.597C108.636 161.683 108.567 161.751 108.481 161.756L70.1161 162.327C69.713 162.327 69.3862 162 69.3862 161.597C69.3862 161.194 69.713 160.867 70.1161 160.867Z" fill="#433554"/>
<path d="M69.3674 161.596C69.3723 161.79 69.454 161.974 69.5944 162.107C69.7348 162.24 69.9224 162.312 70.116 162.307C69.715 162.308 69.3869 161.988 69.3768 161.587C69.3768 161.188 69.6979 160.863 70.0973 160.857C69.7052 160.873 69.3952 161.195 69.3955 161.587" fill="#E0DBE5"/>
<path d="M69.3767 161.596C69.3869 161.997 69.7149 162.317 70.1159 162.317L87.5768 161.746C87.6573 161.734 87.7189 161.668 87.7265 161.587C87.7267 161.503 87.661 161.433 87.5768 161.428L70.1159 160.857C69.7165 160.863 69.3954 161.188 69.3954 161.587" fill="#564076"/>
<path d="M69.6481 159.492L70.378 160.82L71.7161 161.54L70.3874 162.27L69.6669 163.608L68.9276 162.279L67.5989 161.559L68.9276 160.829L69.6481 159.492Z" fill="#87759B"/>
<path d="M292.008 3.70281L398.578 5.23434C398.693 5.23423 398.803 5.27941 398.883 5.35938C398.963 5.43935 399.005 5.54716 399 5.65776C399 5.88166 398.811 6.06317 398.578 6.06317L292.008 7.56767C290.89 7.58509 289.97 6.72797 289.951 5.65326C289.933 4.57854 290.825 3.6932 291.942 3.67578H292.008" fill="#433554"/>
<path d="M289.918 5.62156V5.68462C289.936 6.20081 290.165 6.68928 290.557 7.04245C290.949 7.39561 291.471 7.5845 292.008 7.5675C291.471 7.57472 290.953 7.37659 290.568 7.01671C290.184 6.65684 289.963 6.1647 289.956 5.64858C289.956 4.58778 290.839 3.72228 291.942 3.70264H291.867C290.779 3.74142 289.918 4.60139 289.918 5.64858" fill="#E0DBE5"/>
<path d="M289.956 5.62156C289.963 6.13767 290.184 6.62981 290.569 6.98969C290.953 7.34956 291.471 7.54769 292.008 7.54047L340.529 6.00894C340.756 5.99949 340.936 5.82206 340.941 5.60354C340.944 5.49601 340.902 5.39193 340.824 5.31421C340.747 5.23648 340.641 5.19149 340.529 5.18912L292.008 3.70264H291.942C290.839 3.72228 289.956 4.58778 289.956 5.64858" fill="#564076"/>
<path d="M290.687 0L292.729 3.54955L296.43 5.46847L292.748 7.43243L290.743 11L288.701 7.45045L285 5.52252L288.682 3.56757L290.687 0Z" fill="#87759B"/>
<g opacity="0.5">
<path d="M363.712 21.3008L451.503 22.6105C451.598 22.6105 451.688 22.6479 451.755 22.7146C451.822 22.7812 451.859 22.8717 451.859 22.9659C451.854 23.1602 451.698 23.3165 451.503 23.3214L363.712 24.6311C362.793 24.6311 362.047 23.8856 362.047 22.9659C362.047 22.0463 362.793 21.3008 363.712 21.3008" fill="#1E3A3F"/>
<path d="M362.019 22.9661V23.0222C362.049 23.9308 362.803 24.647 363.712 24.6312C362.796 24.6416 362.044 23.9101 362.028 22.9941C362.021 22.5444 362.195 22.1107 362.513 21.7918C362.83 21.4728 363.263 21.2958 363.712 21.3009H363.656C362.758 21.3312 362.046 22.0679 362.047 22.9661" fill="#EBF1F4"/>
<path d="M362.047 22.9659C362.062 23.8819 362.815 24.6135 363.731 24.603L403.706 23.2934C403.893 23.284 404.043 23.1344 404.052 22.9472C404.052 22.7545 403.899 22.5968 403.706 22.5917L363.712 21.3008C362.804 21.3161 362.075 22.0571 362.075 22.9659" fill="#306D71"/>
<path d="M362.646 18.1577L364.33 21.1887L367.381 22.8351L364.349 24.519L362.693 27.5687L361.018 24.5377L357.967 22.8819L360.999 21.2074L362.646 18.1577Z" fill="#B2CAD4"/>
</g>
<g opacity="0.6">
<path d="M324.749 354.012L442.523 355.68C442.788 355.685 443 355.89 443 356.142C442.995 356.388 442.783 356.586 442.523 356.586L324.749 358.254C323.951 358.265 323.207 357.871 322.798 357.221C322.389 356.57 322.376 355.761 322.765 355.099C323.154 354.437 323.885 354.023 324.683 354.012H324.749Z" fill="#1E3A3F"/>
<path d="M322.44 356.133V356.204C322.457 356.768 322.71 357.301 323.144 357.686C323.578 358.071 324.155 358.276 324.749 358.254C324.156 358.264 323.584 358.05 323.158 357.658C322.732 357.267 322.487 356.731 322.477 356.169C322.482 355.009 323.463 354.067 324.683 354.047H324.599C323.395 354.086 322.439 355.024 322.44 356.169" fill="#EBF1F4"/>
<path d="M322.478 356.133C322.487 356.696 322.732 357.232 323.158 357.623C323.584 358.014 324.156 358.228 324.749 358.219L378.383 356.55C378.632 356.541 378.831 356.352 378.841 356.115C378.837 355.874 378.637 355.677 378.383 355.663L324.749 353.994H324.683C323.463 354.013 322.482 354.956 322.478 356.115" fill="#306D71"/>
<path d="M323.291 350L325.543 353.87L329.647 355.973L325.571 358.112L323.356 362L321.103 358.139L317 356.036L321.075 353.888L323.291 350Z" fill="#B2CAD4"/>
</g>
<g opacity="0.5">
<path d="M5.27273 236.294L73.0483 237.304C73.1996 237.309 73.3197 237.433 73.3196 237.585C73.3148 237.732 73.1961 237.851 73.0483 237.856L5.27273 238.866C4.78686 238.908 4.31906 238.672 4.06336 238.257C3.80766 237.842 3.80766 237.318 4.06336 236.903C4.31906 236.488 4.78686 236.252 5.27273 236.294Z" fill="#1E3A3F"/>
<path d="M3.93463 237.575C3.96005 238.285 4.55363 238.841 5.26338 238.82C4.55223 238.825 3.96868 238.258 3.95335 237.547C3.95837 236.845 4.52372 236.276 5.22595 236.266C4.87942 236.263 4.54658 236.401 4.30331 236.648C4.06003 236.894 3.92704 237.229 3.93463 237.575Z" fill="#EBF1F4"/>
<path d="M3.93457 237.575C3.9499 238.286 4.53345 238.853 5.2446 238.848L36.124 237.837C36.2718 237.832 36.3905 237.714 36.3953 237.566C36.3905 237.418 36.2718 237.299 36.124 237.295L5.2446 236.284C4.89889 236.279 4.56561 236.413 4.31938 236.656C4.07315 236.898 3.93453 237.23 3.93457 237.575Z" fill="#306D71"/>
<path d="M4.43055 233.861L5.73123 236.209L8.08929 237.482L5.74059 238.782L4.46798 241.13L3.17666 238.791L0.818604 237.519L3.15795 236.219L4.43055 233.861Z" fill="#B2CAD4"/>
</g>
<defs>
<linearGradient id="paint0_linear" x1="578.308" y1="242.218" x2="707.189" y2="242.218" gradientUnits="userSpaceOnUse">
<stop stop-color="#3C4F56" stop-opacity="0.01"/>
<stop offset="0.179216" stop-color="#3C4F56" stop-opacity="0.01"/>
<stop offset="0.53248" stop-color="#3C4F56" stop-opacity="0.331465"/>
<stop offset="0.880009" stop-color="#1C272B" stop-opacity="0.222798"/>
<stop offset="1" stop-color="#1C272B" stop-opacity="0.01"/>
</linearGradient>
<linearGradient id="paint1_linear" x1="449.675" y1="-1719.21" x2="-1209.35" y2="381.801" gradientUnits="userSpaceOnUse">
<stop offset="0.42" stop-color="#FFFBCE" stop-opacity="0.8"/>
<stop offset="0.44" stop-color="#FFFBD3" stop-opacity="0.72"/>
<stop offset="0.51" stop-color="#FFFDE6" stop-opacity="0.42"/>
<stop offset="0.57" stop-color="#FFFEF3" stop-opacity="0.19"/>
<stop offset="0.61" stop-color="#FFFFFC" stop-opacity="0.05"/>
<stop offset="0.64" stop-color="white" stop-opacity="0.01"/>
</linearGradient>
</defs>
</svg>
