<?xml version="1.0" ?><!DOCTYPE svg  PUBLIC '-//W3C//DTD SVG 1.1//EN'  'http://www.w3.org/Graphics/SVG/1.1/DTD/svg11.dtd'><svg height="512px" style="enable-background:new 0 0 512 512;" version="1.1" viewBox="0 0 512 512" width="512px" xml:space="preserve" xmlns="http://www.w3.org/2000/svg" xmlns:xlink="http://www.w3.org/1999/xlink"><g id="_x36_89_x2C__Accumulation_x2C__bag_x2C__investment_x2C__loan_x2C__money"><g><path d="M251.276,321.933c1.204-0.265,2.178-0.819,2.936-1.709    c0.758-0.892,1.132-1.927,1.132-3.131c0-1.058-0.313-1.974-0.963-2.744c-0.614-0.771-1.66-1.372-3.104-1.781V321.933z     M247.796,296.463c-0.938,0.313-1.672,0.866-2.227,1.637c-0.541,0.771-0.806,1.612-0.806,2.528c0,0.843,0.241,1.636,0.734,2.358    c0.505,0.723,1.275,1.301,2.298,1.734V296.463z M247.796,321.547v-10.015c-3.104-0.89-5.392-2.239-6.836-4.045    c-1.457-1.804-2.178-3.995-2.178-6.571c0-2.623,0.818-4.815,2.467-6.572c1.637-1.805,3.827-2.816,6.547-3.08v-2.359h3.48v2.359    c2.551,0.289,4.573,1.156,6.089,2.6c1.493,1.42,2.456,3.322,2.878,5.729l-6.079,0.771c-0.374-1.855-1.337-3.131-2.888-3.805v9.316    c3.852,1.035,6.475,2.383,7.859,4.045c1.395,1.637,2.081,3.755,2.081,6.33c0,2.889-0.865,5.321-2.623,7.295    c-1.757,1.975-4.189,3.201-7.317,3.684v4.453h-3.48v-4.406c-2.744-0.336-4.971-1.348-6.703-3.057    c-1.721-1.709-2.818-4.116-3.287-7.223l6.223-0.746c0.252,1.276,0.735,2.359,1.434,3.298    C246.159,320.464,246.942,321.138,247.796,321.547z M162.47,348.869H32.982H32.91h-0.602v18.103h126.815h0.084h3.262V348.869z     M156.164,372.895H29.348h-0.084h-3.262v18.079h130.162V372.895z M35.944,342.947h129.415h0.074h0.072h0.602v-18.102h-15.6h-0.084    H35.944V342.947z M485.999,252.795H355.824v18.103h120.354h0.084h9.737V252.795z M473.215,276.82H352.864h-0.074h-9.749v18.102    h126.828h0.084h3.262V276.82z M466.908,300.819H340.165h-0.072h-0.084h-3.274v18.104h3.274h0.084h0.072h126.743V300.819z     M469.953,324.846h-0.084H343.041v18.102h133.137h0.084h1.563v-18.102H469.953z M473.215,348.869H343.041v1.734v0.047v0.049    v16.272h121.978h0.072h8.124V348.869z M462.059,372.895H340.093h-0.084h-8.124v18.079h130.174V372.895z M334.05,366.972h3.081    v-4.694C336.145,363.867,335.121,365.432,334.05,366.972z M291.802,155.516h-74.385h-0.072h-10.136    c-1.828,0-3.513,0.77-4.729,1.975c-1.204,1.228-1.961,2.912-1.961,4.742c0,1.781,0.698,3.418,1.84,4.622l0.121,0.12    c1.216,1.203,2.901,1.951,4.729,1.951h75.892h0.071h8.63c1.843,0,3.527-0.748,4.731-1.951c1.216-1.227,1.974-2.889,1.974-4.742    c0-1.83-0.758-3.515-1.974-4.742C295.329,156.285,293.645,155.516,291.802,155.516z M280.896,174.846h-65.357    c-8.028,27.252-21.87,47.642-34.616,66.395l-0.108,0.168c-14.901,21.906-28.262,41.525-28.262,66.946    c0,2.288,0.072,4.503,0.218,6.62l0.337,3.949h15.959c1.637,0,2.962,1.322,2.962,2.959v24.025c0,1.637-1.325,2.961-2.962,2.961    h-0.674v12.639c3.202,4.861,6.836,9.437,10.832,13.65c3.997,4.211,8.354,8.039,13.023,11.459h114.527    c6.452-4.72,12.289-10.209,17.381-16.347c5.115-6.163,9.484-12.976,12.975-20.318v-3.971v-0.073v-0.072v-20.99h-3.346    c-1.636,0-2.961-1.325-2.961-2.963v-23.999c0-1.638,1.325-2.962,2.961-2.962h3.346v-20.703    c-5.283-10.207-12.264-20.244-19.607-30.838C303.959,223.835,289.13,202.459,280.896,174.846z M220.8,149.617h12.975    c7.366-15.84-1.048-49.83-1.07-49.926c-0.398-1.59,0.541-3.202,2.118-3.588c1.576-0.409,3.19,0.555,3.587,2.119    c0.024,0.097,8.112,32.859,1.685,51.395h11.845c-12.447-19.137,3.743-51.852,3.792-51.949c0.708-1.469,2.479-2.07,3.946-1.371    c1.457,0.697,2.071,2.479,1.372,3.947c-0.047,0.097-16.994,34.376-1.528,49.373h16.13c-1.48-12.686-1.432-25.155-0.205-37.528    c1.24-12.422,3.683-24.771,6.982-37.145l-0.434-0.121c-7.223-2.093-12.303,0.649-17.321,3.371    c-7.139,3.874-14.19,7.703-26.095,1.757c-2.95-1.469-5.249-2.793-7.089-3.852l-0.168-0.098c-4.815-2.791-5.885-3.393-14.564-1.588    c2.624,11.917,4.382,25.229,5.08,38.564C222.484,125.545,222.195,138.159,220.8,149.617z M273.242,286.568    c-6.079-6.065-14.468-9.82-23.736-9.82c-9.256,0-17.646,3.755-23.712,9.82c-6.079,6.066-9.834,14.469-9.834,23.713    c0,9.267,3.768,17.668,9.834,23.734c6.056,6.068,14.445,9.823,23.712,9.823c9.196,0,17.536-3.683,23.58-9.678l0.144-0.146    c6.066-6.066,9.834-14.468,9.834-23.734C283.063,301.037,279.296,292.635,273.242,286.568z M296.05,310.281    c0-1.687,1.373-3.082,3.082-3.082c1.698,0,3.081,1.396,3.081,3.082c0,14.564-5.91,27.732-15.441,37.264l-0.181,0.193    c-9.534,9.437-22.642,15.263-37.073,15.263c-1.709,0-3.082-1.397-3.082-3.081c0-1.709,1.372-3.082,3.082-3.082    c12.783,0,24.35-5.152,32.75-13.481l0.146-0.169C290.839,334.764,296.05,323.137,296.05,310.281z M202.973,310.281    c0,1.709-1.372,3.081-3.081,3.081c-1.697,0-3.082-1.372-3.082-3.081c0-14.54,5.91-27.708,15.443-37.241    c9.532-9.534,22.7-15.454,37.264-15.454c1.697,0,3.081,1.395,3.081,3.081c0,1.71-1.384,3.081-3.081,3.081    c-12.855,0-24.482,5.223-32.907,13.648C208.185,285.799,202.973,297.426,202.973,310.281z M176.048,324.699    c-0.47-1.563,0.409-3.2,1.974-3.683c1.551-0.456,3.201,0.411,3.671,1.974c0.035,0.097,11.375,39.144,48.722,50.048    c1.565,0.458,2.467,2.095,2.011,3.66c-0.458,1.563-2.095,2.455-3.648,1.997C188.3,366.875,176.083,324.82,176.048,324.699z     M229.995,438.613c-1.637,0-2.96-1.323-2.96-2.96c0-1.613,1.323-2.962,2.96-2.962h189.381c1.638,0,2.962,1.349,2.962,2.962    c0,1.637-1.324,2.96-2.962,2.96H229.995z M438.768,438.613c-1.637,0-2.962-1.323-2.962-2.96c0-1.613,1.325-2.962,2.962-2.962    h23.676c1.624,0,2.962,1.349,2.962,2.962c0,1.637-1.338,2.96-2.962,2.96H438.768z M58.958,438.108    c-1.637,0-2.962-1.323-2.962-2.961c0-1.612,1.325-2.962,2.962-2.962h89.743c1.625,0,2.95,1.35,2.95,2.962    c0,1.638-1.325,2.961-2.95,2.961H58.958z M69.73,421.98c-1.625,0-2.95-1.35-2.95-2.963c0-1.637,1.325-2.96,2.95-2.96h273.684    c1.638,0,2.961,1.323,2.961,2.96c0,1.613-1.323,2.963-2.961,2.963H69.73z M249.506,270.585c10.965,0,20.896,4.454,28.068,11.627    c7.198,7.198,11.651,17.116,11.651,28.069c0,10.978-4.453,20.918-11.639,28.094l-0.181,0.168    c-7.174,7.077-17.032,11.459-27.9,11.459c-10.941,0-20.883-4.454-28.069-11.627c-7.186-7.176-11.639-17.116-11.639-28.094    c0-10.931,4.454-20.871,11.639-28.069C228.623,275.039,238.54,270.585,249.506,270.585z" style="fill-rule:evenodd;clip-rule:evenodd;"/></g></g><g id="Layer_1"/></svg>